<?xml version="1.0" encoding="UTF-8"?><svg xmlns="http://www.w3.org/2000/svg" viewBox="0 0 677 339"><g fill="none" fill-rule="evenodd"><path fill="#4EC5A5" fill-rule="nonzero" d="M169.4 169.5H4C4 78 78 4 169.4 4v165.5Z"/><path fill="#34558B" fill-rule="nonzero" d="M169.4 169.5v165.4C78 334.9 4 260.9 4 169.5h165.4Z"/><path fill="#FFAF12" fill-rule="nonzero" d="M169.4 169.5h165.3c0 91.3-74 165.4-165.3 165.4V169.5Z"/><path fill="#D13B40" fill-rule="nonzero" d="M169.4 169.5V4c91.3 0 165.3 74 165.3 165.4H169.4v.1Z"/><path fill="#F0F4F7" d="M388.7 156.4h287.6V99H388.7z"/><path fill="#FFAF12" d="M383.6 156.4h5V99h-5z"/><path fill="#F0F4F7" d="M388.7 235h287.6v-57.5H388.7z"/><path fill="#34558B" d="M383.6 235h5v-57.5h-5z"/><path fill="#F0F4F7" d="M388.7 313.7h287.6V256H388.7z"/><path fill="#4EC5A5" d="M383.6 313.7h5V256h-5z"/><path fill="#FFF" fill-rule="nonzero" d="m168.6.5 28 31-28 30.8z"/><path fill="#4EC5A5" fill-rule="nonzero" d="m168.6 4.1 24.1 27.3-24 27.3V4.1z"/><path fill="#FFF" fill-rule="nonzero" d="m.4 169.8 30.9-28 31 28H.3z"/><path fill="#34558B" fill-rule="nonzero" d="m4.1 170.7 27.4-24 27.3 24H4z"/><path fill="#FFF" fill-rule="nonzero" d="m169.4 338.5-28-31 28-30.9z"/><path fill="#FFAF12" fill-rule="nonzero" d="m169.7 334.9-24-27.3 24-27.4V335z"/><path fill="#FFF" fill-rule="nonzero" d="m338.3 169.1-30.9 28-30.9-28h61.8z"/><path fill="#D13B40" fill-rule="nonzero" d="m335 168.2-27.4 24.1-27.3-24h54.6z"/><path fill="#3B3D4B" fill-rule="nonzero" d="M399 118.6c-1.2 0-2.1-.3-2.7-1-.9-.7-1.3-1.9-1.3-3.4s.4-2.6 1.3-3.4c.6-.6 1.5-1 2.7-1 1.2 0 2 .4 2.7 1 .8.8 1.2 2 1.2 3.4 0 1.5-.4 2.7-1.2 3.5-.6.6-1.5 1-2.7 1v-.1Zm1.6-2.2c.4-.5.6-1.2.6-2.2 0-.9-.2-1.6-.6-2.1a2 2 0 0 0-1.6-.8 2 2 0 0 0-1.7.8c-.4.5-.6 1.2-.6 2.1 0 1 .2 1.7.6 2.2.4.5 1 .8 1.7.8a2 2 0 0 0 1.6-.8Zm6.6-2.6c-.6 0-1 .2-1.3.6l-.2 1v3h-1.6v-6.1h1.5v1l.7-.8c.3-.3.8-.4 1.2-.4h.2v1.7a4 4 0 0 0-.5 0Zm3-1.5v6.1h-1.6v-6.1h1.6Zm0-2.2v1.4h-1.6v-1.4h1.6Zm6.8 6.5c0 .4-.2.7-.5 1.1a3 3 0 0 1-2.2.9c-.8 0-1.5-.2-2.1-.8-.6-.5-.9-1.3-.9-2.4 0-1 .3-1.9.8-2.4.5-.6 1.2-.9 2.1-.9.5 0 1 .1 1.4.3.4.2.7.5 1 1l.5 1.2v1.2h-4.2c0 .6.2 1 .6 1.3l.8.2c.3 0 .6 0 .8-.3l.3-.4h1.6Zm-1.6-1.9c0-.4-.1-.7-.3-1l-.9-.3a1 1 0 0 0-.9.4c-.2.2-.3.5-.3 1h2.4v-.1Zm5.6-1.2c-.5 0-.9.2-1 .7-.2.2-.2.5-.2.9v3.3h-1.6v-6.1h1.5v.9l.6-.7a2 2 0 0 1 1.3-.4c.6 0 1.1.2 1.5.5.4.4.6 1 .6 1.7v4.1h-1.6v-3.7l-.1-.8c-.2-.3-.5-.4-1-.4Zm7 3.8v1.2h-.8c-.7 0-1.2-.1-1.5-.4-.2-.2-.3-.5-.3-.9v-3.7h-.8v-1.2h.8v-1.7h1.6v1.7h1v1.2h-1v3.2l.1.5h.9v.1Zm-32.5 12.2 1.2 5 1.4-5h.9l1.4 5 1.1-5h1l-1.7 6.2h-.8l-1.5-5.2-1.4 5.2h-.9l-1.6-6.2h.9Zm7.6-.1h.8v2.4l.5-.5c.2-.2.5-.3.9-.3.6 0 1 .3 1.3.7l.2 1v3h-.8v-2.9l-.1-.7c-.1-.3-.4-.4-.8-.4-.3 0-.6.1-.8.3-.3.3-.4.7-.4 1.3v2.4h-.8v-6.3Zm6.7 1.6a2 2 0 0 1 1.6.9c.2.2.3.4.3.8l.1 1h-3.3c0 .4.1.8.3 1 .2.3.5.5 1 .5.6 0 1.1-.4 1.2-1h.7c0 .2 0 .4-.2.6-.2.5-.7.9-1.2 1h-.6c-.6 0-1-.2-1.4-.6-.4-.4-.6-1-.6-1.7s.2-1.3.6-1.8a2 2 0 0 1 1.5-.7Zm1.2 2c0-.2 0-.5-.2-.7-.2-.4-.6-.6-1-.6s-.7.1-1 .4c-.2.2-.3.6-.3 1h2.5v-.1Zm1.7-1.9h.8v.8l.4-.5c.2-.2.6-.3.9-.3h.1v.8h-.2a1 1 0 0 0-.9.3c-.2.3-.3.5-.3.9v2.6h-.8V131v.1Zm4.8-.1a2 2 0 0 1 1.6.9l.3.8v1h-3.2c0 .4 0 .8.3 1 .2.3.5.5 1 .5.6 0 1.1-.4 1.2-1h.7c0 .2 0 .4-.2.6-.2.5-.7.9-1.2 1h-.6c-.6 0-1-.2-1.5-.6-.4-.4-.6-1-.6-1.7s.2-1.3.6-1.8a2 2 0 0 1 1.6-.7Zm1.2 2c0-.2 0-.5-.2-.7-.2-.4-.6-.6-1-.6s-.7.1-1 .4c-.2.2-.3.6-.3 1h2.5v-.1Zm4.7 1.5c0 .2 0 .4.2.5l.6.2c.2 0 .5 0 .8-.2.4-.2.6-.6.6-1v-.6l-.4.1a3 3 0 0 1-.4.1h-.5l-.6.2a1 1 0 0 0-.3.7Zm1.8-1.6c.2 0 .3 0 .4-.2v-.3c0-.2 0-.4-.3-.5-.2-.2-.4-.2-.8-.2s-.6 0-.8.3l-.2.5h-.7c0-.5.2-1 .6-1.1.3-.3.7-.4 1.2-.4s1 .1 1.3.3c.3.2.4.6.4 1v2.7h.5v.6h-.5c-.2 0-.4 0-.5-.2a1 1 0 0 1-.2-.4 2 2 0 0 1-.6.5 2 2 0 0 1-1 .2c-.4 0-.8-.1-1-.4-.3-.2-.4-.5-.4-1 0-.3.1-.7.4-.9.2-.2.6-.4 1-.4l1.2-.2v.1Zm2.4-1.8h.7v.8l.5-.5c.2-.2.5-.3.8-.3h.2v.8h-.2a1 1 0 0 0-1 .3l-.2.9v2.6h-.8V131v.1Zm4.7-.1a2 2 0 0 1 1.7.9l.3.8v1H431c0 .4.1.8.3 1 .2.3.6.5 1 .5.6 0 1.1-.4 1.2-1h.8l-.2.6c-.2.5-.7.9-1.2 1h-.7a2 2 0 0 1-1.4-.6c-.4-.4-.6-1-.6-1.7s.2-1.3.6-1.8a2 2 0 0 1 1.5-.7Zm1.2 2c0-.2 0-.5-.2-.7-.2-.4-.5-.6-1-.6-.4 0-.6.1-.9.4-.2.2-.3.6-.4 1h2.5v-.1Zm7-1.9h.8l-2.3 6c-.2.3-.5.4-1 .4h-.4v-.7h.7l.2-.2.2-.3c0-.3.1-.4.2-.5l-1.7-4.7h.8l1.3 3.7 1.2-3.7Zm3.3 4.1c.5 0 .8-.2 1-.6.2-.4.3-.8.3-1.3l-.2-1c-.2-.4-.6-.6-1.1-.6-.5 0-.8.2-1 .5a2 2 0 0 0-.4 1.3c0 .5.1.9.4 1.2.2.3.5.5 1 .5Zm0-4.2c.6 0 1 .2 1.5.6.4.4.6 1 .6 1.7a3 3 0 0 1-.6 1.8c-.3.5-.9.7-1.6.7a2 2 0 0 1-1.5-.6c-.4-.4-.5-1-.5-1.7 0-.8.1-1.4.5-1.8a2 2 0 0 1 1.6-.7Zm3.7.1v3l.1.6c.2.3.4.4.8.4.5 0 .9-.2 1-.7.2-.2.2-.6.2-1V131h.8v4.6h-.7v-.7l-.4.4c-.3.3-.6.4-1 .4-.7 0-1.1-.2-1.4-.7a2 2 0 0 1-.2-.9v-3h.8Zm8.2-.1c.5 0 1 .1 1.2.4.4.2.5.7.6 1.3h-.7c0-.3-.2-.5-.3-.7-.2-.2-.5-.3-.8-.3-.5 0-.8.2-1 .7-.2.3-.2.7-.2 1.1 0 .5 0 .9.2 1.2.2.3.5.4 1 .4.3 0 .5 0 .7-.2l.4-.8h.7c0 .6-.3 1-.6 1.3a2 2 0 0 1-1.3.4c-.6 0-1-.2-1.4-.7-.4-.4-.6-1-.6-1.6 0-.8.2-1.4.6-1.8.4-.5.9-.7 1.5-.7Zm3.3.1v3l.1.6c.2.3.4.4.8.4.5 0 .9-.2 1-.7.2-.2.2-.6.2-1V131h.8v4.6h-.7v-.7l-.4.4c-.3.3-.6.4-1 .4-.7 0-1.1-.2-1.4-.7a2 2 0 0 1-.2-.9v-3h.8Zm4 0h.8v.8l.4-.5c.3-.3.6-.4 1-.3v.8h-.2a1 1 0 0 0-.9.3c-.2.3-.3.5-.3.9v2.6h-.7V131l-.1.1Zm3 0h.7v.8l.4-.5c.2-.2.6-.3.9-.3h.2v.8a1 1 0 0 0-.3 0 1 1 0 0 0-.9.3c-.2.3-.3.5-.3.9v2.6h-.7V131v.1Zm4.7-.1a2 2 0 0 1 1.6.9c.2.2.3.4.3.8v1h-3.2c0 .4 0 .8.3 1 .2.3.5.5 1 .5.6 0 1.1-.4 1.2-1h.7c0 .2 0 .4-.2.6-.2.5-.7.9-1.2 1h-.6c-.6 0-1-.2-1.5-.6-.4-.4-.5-1-.5-1.7s.1-1.3.5-1.8a2 2 0 0 1 1.6-.7Zm1.2 2c0-.2 0-.5-.2-.7-.2-.4-.6-.6-1-.6s-.7.1-1 .4c-.2.2-.3.6-.3 1h2.5v-.1Zm1.7-1.9h.7v.7l.7-.6.8-.2c.6 0 1 .3 1.3.7l.2 1v3h-.8v-2.9l-.1-.7a.8.8 0 0 0-.7-.4h-.5l-.5.5c-.2.1-.2.3-.3.4v3.1h-.8V131v.1Zm5-1.2h.7v1.2h.7v.7h-.7v3s0 .2.2.2h.5v.7h-.5c-.4 0-.6 0-.8-.2l-.1-.7v-3h-.7v-.7h.7v-1.2Zm2.2-.4h.8v6.2h-.8v-6.2Zm4.7 1.6h.9l-2.4 6c-.1.3-.5.4-.9.4h-.4v-.7h.7l.2-.2.1-.3.2-.5-1.7-4.7h.9l1.2 3.7 1.2-3.7Zm4.5 3.4c0 .2 0 .4.2.5l.6.2c.3 0 .5 0 .8-.2.4-.2.6-.6.6-1v-.6l-.3.1a3 3 0 0 1-.5.1h-.4l-.6.2c-.3.2-.4.4-.4.7Zm1.8-1.6c.2 0 .3 0 .4-.2v-.3c0-.2 0-.4-.2-.5-.2-.2-.5-.2-.8-.2-.4 0-.7 0-.9.3l-.2.5h-.7c0-.5.2-1 .6-1.1.3-.3.7-.4 1.2-.4s1 .1 1.3.3c.3.2.5.6.5 1v2.7h.5v.6a2 2 0 0 1-.3 0h-.2c-.3 0-.5 0-.6-.2l-.1-.4a2 2 0 0 1-.7.5 2 2 0 0 1-1 .2c-.4 0-.7-.1-1-.4-.3-.2-.4-.5-.4-1 0-.3.1-.7.4-.9.3-.2.6-.4 1-.4l1.2-.2v.1Zm2.6-3h.7v1.2h.8v.7h-.8v3s0 .2.2.2h.6v.7h-.6c-.4 0-.6 0-.7-.2-.2-.2-.2-.5-.2-.7v-3h-.6v-.7h.6v-1.2Zm4.6 1.2h.8v.8l.4-.5c.2-.2.6-.3.9-.3h.1v.8h-.2a1 1 0 0 0-.9.3c-.2.3-.3.5-.3.9v2.6h-.8V131v.1Zm4.8-.1a2 2 0 0 1 1.6.9l.3.8v1h-3.3c0 .4.2.8.4 1 .2.3.5.5.9.5.6 0 1.1-.4 1.2-1h.8l-.2.6c-.2.5-.7.9-1.2 1h-.7a2 2 0 0 1-1.4-.6c-.4-.4-.6-1-.6-1.7s.2-1.3.6-1.8a2 2 0 0 1 1.6-.7Zm1.2 2c0-.2 0-.5-.2-.7-.3-.4-.6-.6-1-.6s-.7.1-1 .4c-.2.2-.3.6-.3 1h2.5v-.1Zm1.7-3.5h.8v6.2h-.8v-6.2Zm2.5 5c0 .2 0 .4.2.5l.6.2c.3 0 .5 0 .8-.2.4-.2.6-.6.6-1v-.6l-.4.1a3 3 0 0 1-.4.1h-.5l-.6.2a1 1 0 0 0-.3.7Zm1.8-1.6c.2 0 .3 0 .4-.2v-.3c0-.2 0-.4-.3-.5-.1-.2-.4-.2-.8-.2s-.6 0-.8.3l-.2.5h-.7c0-.5.2-1 .6-1.1.3-.3.7-.4 1.2-.4s1 .1 1.3.3c.3.2.4.6.4 1v2.6l.1.2h.5v.6a2 2 0 0 1-.3 0h-.3c-.2 0-.4 0-.5-.2a1 1 0 0 1-.2-.4 2 2 0 0 1-.6.5 2 2 0 0 1-1 .2c-.4 0-.8-.1-1-.4-.3-.2-.4-.5-.4-1 0-.3.1-.7.4-.9.2-.2.6-.4 1-.4l1.2-.2Zm2.5-3h.8v1.2h.7v.7h-.7v3s0 .2.2.2h.5v.7h-.5c-.4 0-.6 0-.8-.2l-.2-.7v-3h-.6v-.7h.6v-1.2Zm2.3 1.3h.8v4.5h-.8v-4.5Zm0-1.7h.8v.8h-.8v-.8Zm2.2 1.6 1.3 3.7 1.2-3.7h.9l-1.7 4.6h-.8l-1.7-4.6h.9-.1Zm5.9-.1a2 2 0 0 1 1.6.9c.2.2.3.4.3.8v1h-3.2c0 .4.1.8.3 1 .2.3.5.5 1 .5.6 0 1.1-.4 1.2-1h.7c0 .2 0 .4-.2.6-.2.5-.7.9-1.2 1h-.6c-.6 0-1-.2-1.5-.6-.3-.4-.5-1-.5-1.7s.2-1.3.6-1.8a2 2 0 0 1 1.5-.7Zm1.2 2c0-.2 0-.5-.2-.7-.2-.4-.6-.6-1-.6s-.7.1-1 .4c-.2.2-.3.6-.3 1h2.5v-.1Zm4.3-3.1h.7v1.2h.7v.7h-.7v3s0 .2.2.2h.5v.7h-.5c-.4 0-.6 0-.8-.2l-.1-.7v-3h-.7v-.7h.7v-1.2Zm4 5.3c.5 0 .8-.2 1-.6.2-.4.3-.8.3-1.3 0-.4 0-.7-.2-1-.2-.4-.6-.6-1.1-.6-.5 0-.8.2-1 .5-.2.4-.3.8-.3 1.3s0 .9.3 1.2c.2.3.5.5 1 .5Zm0-4.2c.6 0 1 .2 1.5.6.4.4.6 1 .6 1.7a3 3 0 0 1-.5 1.8c-.4.5-1 .7-1.7.7-.6 0-1-.2-1.5-.6-.3-.4-.5-1-.5-1.7 0-.8.2-1.4.6-1.8a2 2 0 0 1 1.5-.7Zm5.7.1 1 3.6.8-3.6h.8l1 3.6.9-3.6h.7l-1.3 4.6h-.8l-1-3.5-.8 3.5h-.8l-1.3-4.6h.8Zm5.9-1.7h.8v2.4l.5-.5c.2-.2.5-.3.9-.3.6 0 1 .3 1.3.7l.2 1v3h-.8v-2.9l-.1-.7c-.1-.3-.4-.4-.8-.4-.3 0-.6.1-.8.3-.3.3-.4.7-.4 1.3v2.4h-.8v-6.3Zm6.7 1.6a2 2 0 0 1 1.6.9c.2.2.3.4.3.8v1h-3.2c0 .4.1.8.3 1 .2.3.5.5 1 .5.6 0 1.1-.4 1.2-1h.7c0 .2 0 .4-.2.6-.2.5-.7.9-1.2 1h-.6c-.6 0-1-.2-1.4-.6-.4-.4-.6-1-.6-1.7s.2-1.3.6-1.8a2 2 0 0 1 1.5-.7Zm1.2 2c0-.2 0-.5-.2-.7-.2-.4-.6-.6-1-.6s-.7.1-1 .4c-.2.2-.3.6-.3 1h2.5v-.1Zm1.7-1.9h.8v.8l.4-.5c.2-.2.6-.3.9-.3h.1v.8h-.2a1 1 0 0 0-.9.3c-.2.3-.3.5-.3.9v2.6h-.8V131v.1Zm4.8-.1a2 2 0 0 1 1.6.9l.3.8v1H558c0 .4.2.8.4 1 .2.3.5.5 1 .5.6 0 1-.5 1.1-1h.8c0 .2 0 .4-.2.6-.2.5-.7.9-1.2 1h-.6c-.6 0-1-.2-1.5-.6-.4-.4-.6-1-.6-1.7s.2-1.3.6-1.8a2 2 0 0 1 1.6-.7Zm1.2 2c0-.2 0-.5-.2-.7-.2-.4-.6-.6-1-.6s-.7.1-1 .4c-.2.2-.3.6-.3 1h2.5v-.1Zm6.9-1.9h.8l-2.3 6c-.2.3-.5.4-1 .4h-.4v-.7h.8l.1-.2.4-.8-1.7-4.7h.9l1.2 3.7 1.2-3.7Zm3.3 4.1c.5 0 .8-.2 1-.6.2-.4.3-.8.3-1.3 0-.4 0-.7-.2-1-.2-.4-.6-.6-1.1-.6-.5 0-.8.2-1 .5-.2.4-.3.8-.3 1.3s0 .9.3 1.2c.2.3.5.5 1 .5Zm0-4.2c.6 0 1 .2 1.5.6.4.4.6 1 .6 1.7a3 3 0 0 1-.5 1.8c-.4.5-1 .7-1.7.7a2 2 0 0 1-1.5-.6c-.3-.4-.5-1-.5-1.7 0-.8.2-1.4.6-1.8a2 2 0 0 1 1.5-.7Zm3.8.1v3.6c.2.3.4.4.8.4.5 0 .9-.2 1-.7.2-.2.2-.6.2-1V131h.8v4.6h-.7v-.7l-.4.4c-.3.3-.6.4-1 .4-.7 0-1.1-.2-1.3-.7a2 2 0 0 1-.2-.9v-3h.8Zm6.7 0 .9 3.6.9-3.6h.8l1 3.6.8-3.6h.8l-1.3 4.6h-.8l-1-3.5-.8 3.5h-.8l-1.3-4.6h.8Zm6.5 3.4c0 .2 0 .4.2.5l.6.2c.3 0 .5 0 .8-.2.4-.2.6-.6.6-1v-.6l-.3.1a3 3 0 0 1-.5.1h-.4l-.7.2a1 1 0 0 0-.3.7Zm1.8-1.6c.2 0 .3 0 .4-.2v-.3c0-.2 0-.4-.2-.5-.2-.2-.5-.2-.8-.2-.4 0-.7 0-.9.3l-.2.5h-.7c0-.5.2-1 .6-1.1.3-.3.7-.4 1.2-.4s1 .1 1.3.3c.3.2.5.6.5 1v2.7h.5v.6a2 2 0 0 1-.3 0h-.3c-.2 0-.4 0-.5-.2a1 1 0 0 1-.2-.4 2 2 0 0 1-1.6.8c-.4 0-.7-.2-1-.5-.3-.2-.4-.5-.4-1 0-.3.1-.7.4-.9.3-.2.6-.4 1-.4l1.2-.2v.1Zm2.4-1.8h.7v.7l.7-.6.8-.2c.6 0 1 .3 1.3.7l.2 1v3h-.8v-2.9l-.1-.7a.8.8 0 0 0-.7-.4h-.5l-.5.5c-.2.1-.2.3-.3.4v3.1h-.8V131v.1Zm5-1.2h.7v1.2h.7v.7h-.7v3s0 .2.2.2h.5v.7h-.5c-.4 0-.6 0-.8-.2l-.1-.7v-3h-.6v-.7h.6v-1.2Zm4.8 0h.7v1.2h.7v.7h-.7v3s0 .2.2.2h.5v.7h-.5c-.4 0-.6 0-.8-.2l-.1-.7v-3h-.7v-.7h.7v-1.2Zm4 5.3c.5 0 .8-.2 1-.6.2-.4.3-.8.3-1.3 0-.4 0-.7-.2-1-.2-.4-.6-.6-1.1-.6-.5 0-.8.2-1 .5-.2.4-.3.8-.3 1.3s0 .9.3 1.2c.2.3.5.5 1 .5Zm0-4.2c.6 0 1 .2 1.5.6.4.4.6 1 .6 1.7a3 3 0 0 1-.5 1.8c-.4.5-1 .7-1.7.7a2 2 0 0 1-1.5-.6c-.3-.4-.5-1-.5-1.7 0-.8.2-1.4.6-1.8a2 2 0 0 1 1.5-.7Zm7 0 1 .3.3.5v-.6h.7v4c0 .7 0 1.1-.2 1.4-.3.7-1 1-1.8 1-.5 0-.9-.1-1.2-.4-.3-.2-.5-.5-.6-1h.8l.2.5c.2.2.5.2.8.2.6 0 1-.2 1.2-.6l.1-1.3c-.1.3-.3.4-.5.5-.2.2-.5.2-.9.2-.5 0-.9-.2-1.3-.5-.3-.4-.5-1-.5-1.7 0-.8.2-1.4.5-1.8a2 2 0 0 1 1.4-.6v-.1Zm1.3 2.4c0-.6 0-1-.3-1.3-.2-.2-.5-.4-.9-.4a1 1 0 0 0-1 .8 3 3 0 0 0-.2 1c0 .5 0 1 .3 1.2.2.3.5.4.8.4.6 0 1-.3 1.2-.7l.1-1Zm3.7 1.8c.5 0 .8-.2 1-.6.2-.4.3-.8.3-1.3 0-.4 0-.7-.2-1-.2-.4-.6-.6-1.1-.6-.5 0-.8.2-1 .5-.2.4-.3.8-.3 1.3s0 .9.3 1.2c.2.3.5.5 1 .5Zm0-4.2c.6 0 1 .2 1.5.6.4.4.6 1 .6 1.7a3 3 0 0 1-.5 1.8c-.4.5-1 .7-1.7.7a2 2 0 0 1-1.5-.6c-.3-.4-.5-1-.5-1.7 0-.8.2-1.4.6-1.8a2 2 0 0 1 1.5-.7Zm4.5 3.8h.8v.9h-.8v-1 .1Zm-1.4-3.4c0-.6.2-1 .5-1.5a2 2 0 0 1 1.4-.5c.6 0 1 .1 1.3.5.4.3.5.7.5 1.2l-.1.7-.8.8-.5.7-.1.8h-.8c0-.4 0-.7.2-1 0-.2.3-.5.6-.8l.3-.4.3-.3.1-.5c0-.3 0-.5-.2-.7-.2-.3-.4-.4-.8-.4-.5 0-.8.2-1 .6a2 2 0 0 0-.2.8h-.7Zm7.2-1.9h.8v2.5h3.3v-2.5h.8v6.2h-.8v-3h-3.3v3h-.8v-6.2Zm7.9 5.7c.5 0 .8-.2 1-.6.2-.4.3-.8.3-1.3 0-.4 0-.7-.2-1-.2-.4-.6-.6-1.1-.6-.5 0-.8.2-1 .5-.2.4-.3.8-.3 1.3s0 .9.3 1.2c.2.3.5.5 1 .5Zm0-4.2a2 2 0 0 1 1.5.6c.4.4.6 1 .6 1.7a3 3 0 0 1-.5 1.8c-.4.5-1 .7-1.7.7-.6 0-1-.2-1.5-.6-.3-.4-.5-1-.5-1.7 0-.8.2-1.4.6-1.8a2 2 0 0 1 1.5-.7Zm3.4.1.8 3.6.9-3.6h.9l.8 3.6 1-3.6h.7l-1.3 4.6h-.8l-.9-3.5-.9 3.5h-.8l-1.3-4.6h.9Zm8.4-.6c0-.4 0-.6.2-.7.2-.3.5-.4 1-.4h.3v.7h-.2c-.3 0-.4 0-.5.2v.9h.7v.6h-.7v3.9h-.8v-4h-.6v-.5h.6v-.7Zm2.8 4c0 .2 0 .4.2.5l.6.2c.3 0 .5 0 .8-.2.4-.2.6-.6.6-1v-.6l-.3.1a3 3 0 0 1-.5.1h-.4l-.6.2c-.3.2-.4.4-.4.7Zm1.8-1.6c.2 0 .3 0 .4-.2v-.3c0-.2 0-.4-.2-.5-.2-.2-.5-.2-.8-.2-.4 0-.7 0-.9.3l-.1.5h-.8c0-.5.2-1 .6-1.1.3-.3.7-.4 1.2-.4s1 .1 1.3.3c.3.2.5.6.5 1v2.7h.5v.6a2 2 0 0 1-.3 0h-.2c-.3 0-.5 0-.6-.2l-.1-.4a2 2 0 0 1-.7.5 2 2 0 0 1-1 .2c-.4 0-.7-.1-1-.4-.3-.2-.4-.5-.4-1 0-.3.1-.7.4-.9.3-.2.6-.4 1-.4l1.2-.2v.1Zm2.4-1.8h.8v.8l.4-.5c.2-.2.6-.3.9-.3h.1v.8h-.2a1 1 0 0 0-.9.3c-.2.3-.3.5-.3.9v2.6h-.8V131v.1Zm5.2.1h.9v4.5h-.8v-4.5h-.1Zm0-1.7h.9v.8h-.8v-.8h-.1Zm2.5 4.7.1.6c.2.3.6.4 1 .4.3 0 .6 0 .8-.2.2-.1.3-.3.3-.6 0-.2 0-.3-.3-.4a3 3 0 0 0-.6-.2l-.6-.2a3 3 0 0 1-.9-.3 1 1 0 0 1-.4-.8c0-.5.1-.8.4-1 .3-.3.7-.5 1.3-.5.6 0 1.1.2 1.4.6l.3.8h-.7c0-.1 0-.3-.2-.4-.2-.2-.5-.3-1-.3a1 1 0 0 0-.6.1l-.2.5c0 .2.1.3.3.4l.5.2.5.2c.6 0 1 .2 1.1.3.3.2.4.5.4 1 0 .4-.1.7-.4 1-.3.3-.8.4-1.4.4-.7 0-1.1-.1-1.4-.4-.3-.3-.5-.7-.5-1.2h.8Zm-267.5 7h.8v4.5h-.8v-4.5Zm0-1.7h.8v.9h-.8v-.9Zm2 .5h.8v1.2h.7v.6h-.7v3c0 .1 0 .2.2.3h.5v.6l-.5.1c-.4 0-.6 0-.8-.3l-.1-.7v-3h-.7v-.6h.7V140h-.1Zm4.8 0h.8v1.2h.7v.6h-.7v3c0 .1 0 .2.2.3h.5v.6l-.5.1c-.4 0-.6 0-.8-.3l-.2-.7v-3h-.6v-.6h.6V140Zm4.1 5.2c.5 0 .8-.1 1-.5.2-.4.3-.8.3-1.3 0-.4 0-.8-.2-1-.2-.4-.6-.7-1.1-.7-.5 0-.8.2-1 .6-.2.3-.3.8-.3 1.3 0 .4 0 .8.3 1.2.2.3.5.4 1 .4Zm0-4.1c.6 0 1 .2 1.5.6.4.4.6 1 .6 1.7a3 3 0 0 1-.5 1.8c-.4.5-1 .7-1.7.7a2 2 0 0 1-1.5-.6c-.3-.5-.5-1-.5-1.7 0-.8.2-1.4.6-1.8a2 2 0 0 1 1.5-.7Zm8.2.1h.8l-2.3 6c-.2.3-.5.4-1 .4h-.4v-.8l.5.1h.3l.1-.2.2-.4.2-.4-1.7-4.7h.9l1.2 3.7 1.2-3.7Zm3.3 4c.5 0 .8-.1 1-.5.2-.4.3-.8.3-1.3 0-.4 0-.8-.2-1-.2-.4-.6-.7-1.1-.7-.5 0-.8.2-1 .6-.2.3-.3.8-.3 1.3 0 .4 0 .8.3 1.2.2.3.5.4 1 .4Zm0-4.1c.6 0 1 .2 1.5.6.4.4.6 1 .6 1.7a3 3 0 0 1-.5 1.8c-.4.5-1 .7-1.7.7a2 2 0 0 1-1.5-.6c-.3-.5-.5-1-.5-1.7 0-.8.2-1.4.6-1.8a2 2 0 0 1 1.5-.7Zm3.7.1v3c0 .2 0 .4.2.6 0 .2.3.4.7.4.5 0 .9-.3 1-.7.2-.3.2-.6.2-1v-2.3h.8v4.5h-.7v-.6l-.4.4c-.3.2-.6.4-1 .4-.7 0-1.1-.3-1.3-.7a2 2 0 0 1-.2-1v-3h.7Zm4.1 0h.7v.8c0-.2.2-.3.5-.6.2-.2.5-.3.8-.3h.2v.8h-.2a1 1 0 0 0-1 .4l-.2.8v2.6h-.8v-4.5Zm5.8 2.3c0 .5 0 1 .2 1.2.2.4.6.5 1 .5s.7-.1.9-.4c.2-.3.3-.8.3-1.3 0-.6 0-1-.3-1.3a1 1 0 0 0-.9-.4c-.4 0-.7.1-1 .4-.1.3-.3.8-.3 1.3h.1Zm1-2.4c.4 0 .7.1 1 .3l.4.4v-2.3h.7v6.2h-.7v-.6c-.1.3-.3.5-.6.6l-.8.2c-.5 0-1-.2-1.3-.6-.4-.5-.6-1-.6-1.7s.2-1.3.5-1.7c.4-.5.8-.8 1.5-.8h-.1Zm5.1 0c.3 0 .7 0 1 .2l.6.6c.2.3.3.5.3.8l.1 1h-3.3c0 .5.1.8.3 1.1.2.3.5.4 1 .4.6 0 1-.4 1.2-.9h.8l-.2.6c-.2.5-.7.9-1.2 1h-.7c-.6 0-1-.2-1.4-.6-.4-.4-.6-1-.6-1.7 0-.8.2-1.4.6-1.8a2 2 0 0 1 1.5-.7Zm1.2 2c0-.3 0-.6-.2-.8-.2-.3-.5-.5-1-.5-.4 0-.7.1-.9.4-.2.2-.4.5-.4 1h2.5v-.1Zm2.2 1.2c0 .3 0 .5.2.6.2.2.5.4 1 .4l.7-.2c.2-.1.3-.3.3-.6 0-.2 0-.3-.2-.4a3 3 0 0 0-.7-.2l-.6-.2a3 3 0 0 1-.8-.3 1 1 0 0 1-.5-.9c0-.4.1-.7.5-1 .3-.3.7-.4 1.2-.4.7 0 1.2.2 1.5.6.2.3.2.5.2.8h-.7c0-.2 0-.3-.2-.5-.1-.2-.4-.3-.9-.3a1 1 0 0 0-.6.2c-.2.1-.2.3-.2.4 0 .2 0 .4.3.5l.5.2.5.1 1 .4c.3.2.5.5.5 1 0 .3-.2.7-.5 1-.3.3-.7.4-1.4.4a2 2 0 0 1-1.4-.5c-.3-.3-.4-.6-.4-1h.7v-.1Zm4-4.3h.8v1.2h.7v.6h-.7v3l.1.3h.6v.6h-.3l-.3.1c-.3 0-.6 0-.7-.3l-.2-.7v-3h-.6v-.6h.6V140Zm2.3 1.2h.7v4.5h-.7v-4.5Zm0-1.7h.7v.9h-.7v-.9Zm1.9 1.7h.7v.7c.2-.3.4-.5.7-.6l.8-.2c.6 0 1 .2 1.3.7l.1 1v3h-.7v-3l-.1-.6c-.2-.3-.4-.4-.8-.4h-.4l-.6.4-.2.5v3h-.8v-4.5Zm5.3 3.3c0 .2.1.4.3.5.1.2.3.2.6.2l.7-.1c.5-.3.7-.6.7-1v-.7l-.4.2a3 3 0 0 1-.4 0l-.5.1-.6.2c-.2.1-.4.3-.4.6Zm1.9-1.5c.2 0 .3-.1.3-.2v-.3c0-.3 0-.5-.2-.6l-.8-.2c-.4 0-.7.2-.8.4l-.2.5h-.7c0-.6.2-1 .5-1.2l1.2-.3c.6 0 1 .1 1.3.3.4.2.5.5.5 1v2.7l.3.1h.2v.6h-.5c-.3 0-.5 0-.6-.3l-.1-.4a2 2 0 0 1-1.6.8c-.4 0-.8-.1-1-.4-.3-.3-.4-.6-.4-1s0-.7.3-1l1-.4 1.3-.1Zm2.5-3h.8v1.2h.7v.6h-.7v3l.1.3h.6v.6l-.6.1c-.3 0-.6 0-.7-.3l-.2-.7v-3h-.6v-.6h.6V140Zm2.3 1.2h.7v4.5h-.7v-4.5Zm0-1.7h.7v.9h-.7v-.9Zm3.7 5.7c.5 0 .8-.1 1-.5.2-.4.3-.8.3-1.3 0-.4 0-.8-.2-1-.2-.4-.6-.7-1.1-.7-.5 0-.8.2-1 .6-.3.3-.4.8-.4 1.3 0 .4.1.8.4 1.2.2.3.5.4 1 .4Zm0-4.1c.6 0 1 .2 1.5.6.4.4.6 1 .6 1.7a3 3 0 0 1-.6 1.8c-.3.5-.9.7-1.6.7a2 2 0 0 1-1.5-.6c-.4-.5-.5-1-.5-1.7 0-.8.2-1.4.5-1.8a2 2 0 0 1 1.6-.7Zm3 .1h.7v.7c.2-.3.4-.5.7-.6l.8-.2c.6 0 1 .2 1.3.7l.1 1v3h-.7v-3l-.1-.6c-.2-.3-.4-.4-.8-.4h-.4l-.6.4-.2.5v3h-.8v-4.5Zm6.3 3.7h.8v.8h-.8v-.8Zm-1.4-3.4c0-.6.1-1.1.5-1.5.3-.4.8-.5 1.4-.5.5 0 1 .1 1.3.4.4.4.5.8.5 1.2 0 .3 0 .6-.2.8 0 .2-.3.4-.7.8-.3.2-.4.5-.5.7l-.1.8h-.8l.1-1c.1-.3.4-.5.7-.9l.3-.3.3-.3.1-.6c0-.2 0-.5-.2-.7-.2-.2-.5-.3-.8-.3-.5 0-.8.2-1 .5a2 2 0 0 0-.2.9h-.7Zm-73.4 56h-3.6v-8.3h3.6c.5 0 1 0 1.3.2.5.2 1 .5 1.4 1l.6 1.4.1 1.4c0 1-.2 2-.6 2.8a3 3 0 0 1-2.8 1.5Zm1.3-6.2c-.3-.4-.8-.6-1.6-.6H397v5.4h1.6c.8 0 1.4-.4 1.7-1.2.2-.5.3-1 .3-1.6a4 4 0 0 0-.4-2Zm8.5 4.4c0 .4-.2.7-.5 1.1a3 3 0 0 1-2.2 1c-.8 0-1.5-.3-2.1-.8-.6-.5-.9-1.4-.9-2.5 0-1 .3-1.9.8-2.4.5-.6 1.2-.9 2.1-.9.5 0 1 .1 1.4.3.4.2.7.5 1 1l.5 1.2v1.2h-4.2c0 .6.2 1 .6 1.3l.8.2c.3 0 .6 0 .8-.3l.3-.4h1.6Zm-1.6-1.9c0-.4-.1-.7-.3-1l-.9-.3a1 1 0 0 0-.9.4c-.2.2-.3.5-.3 1h2.4v-.1Zm8.1-.2h-1.7c0-.3 0-.5-.2-.6a1 1 0 0 0-.8-.4c-.6 0-1 .3-1.1.8l-.2 1.1c0 .5 0 .8.2 1.1.2.5.5.8 1 .8.4 0 .7-.1.8-.3.2-.2.3-.5.3-.8h1.7c0 .5-.3 1-.6 1.4-.5.7-1.2 1-2.2 1-1 0-1.7-.3-2.2-.9-.4-.5-.7-1.3-.7-2.2 0-1 .3-1.9.8-2.5.5-.6 1.2-.9 2.1-.9.8 0 1.4.2 2 .6.4.3.7.9.8 1.8Zm2.8-2.2v6.1h-1.7v-6.1h1.7Zm0-2.2v1.5h-1.7v-1.5h1.7Zm7 0v8.3h-1.5v-.8c-.2.3-.5.6-.8.7a2 2 0 0 1-1 .3c-.8 0-1.4-.3-1.9-.9-.5-.6-.7-1.3-.7-2.2 0-1 .2-1.9.7-2.5.5-.6 1.1-.9 2-.9l1 .3.6.7v-3h1.6Zm-4.3 5.3c0 .5.1 1 .4 1.3.2.4.5.5 1 .5.4 0 .8-.1 1-.5.2-.3.4-.7.4-1.3 0-.7-.2-1.3-.6-1.6-.2-.2-.5-.3-.8-.3-.5 0-.8.2-1 .6-.3.3-.4.8-.4 1.3Zm11 1.2c0 .4-.2.7-.5 1.1a3 3 0 0 1-2.2 1c-.8 0-1.5-.3-2.1-.8-.6-.5-.9-1.4-.9-2.5 0-1 .3-1.9.8-2.4.5-.6 1.2-.9 2.1-.9.5 0 1 .1 1.4.3.4.2.7.5 1 1l.5 1.2v1.2h-4.2c0 .6.2 1 .6 1.3l.8.2c.3 0 .6 0 .8-.3l.3-.4h1.6Zm-1.6-1.9c0-.4-.1-.7-.3-1l-.9-.3a1 1 0 0 0-.9.4c-.2.2-.3.5-.3 1h2.4v-.1Zm-34.6 14.1 1.2 5 1.4-5h.9l1.4 5 1.1-5h1l-1.7 6.1h-.8l-1.5-5-1.4 5h-.9l-1.6-6.1h.9Zm7.6-.1h.8v2.3l.5-.4c.2-.2.5-.3.9-.3.6 0 1 .3 1.3.7l.2 1v3h-.8v-2.9l-.1-.7c-.1-.3-.4-.4-.8-.4-.3 0-.6.1-.8.3-.3.2-.4.6-.4 1.3v2.3h-.8v-6.2Zm5.4 5c0 .3 0 .4.2.6l.6.2.8-.2c.4-.2.6-.6.6-1v-.7l-.3.2h-.5l-.4.1-.6.2c-.3.1-.4.4-.4.6Zm1.8-1.5c.2 0 .3 0 .4-.2v-.3c0-.3 0-.4-.2-.6l-.8-.1c-.4 0-.7 0-.9.3l-.1.5h-.8c0-.5.2-1 .6-1.2.3-.2.7-.3 1.2-.3s1 .1 1.3.3c.3.2.5.5.5 1v2.8h.5v.6h-.5c-.3 0-.5 0-.6-.2a1 1 0 0 1-.1-.5 2 2 0 0 1-.7.6 2 2 0 0 1-1 .2c-.4 0-.7-.1-1-.4-.3-.2-.4-.6-.4-1s.1-.7.4-1c.3-.1.6-.3 1-.3l1.2-.2Zm2.6-3h.7v1.2h.8v.6h-.8v3c0 .2.1.3.2.3h.6v.6l-.3.1h-.3c-.4 0-.6 0-.7-.3-.2-.1-.2-.4-.2-.7v-3h-.6v-.6h.6v-1.2Zm4.6 1.3h.8v4.4h-.8v-4.4Zm0-1.7h.8v.8h-.8v-.8Zm2.4 4.7c0 .3 0 .5.2.6.2.3.5.4 1 .4.2 0 .5 0 .7-.2.2-.1.3-.3.3-.6 0-.2 0-.3-.2-.4a3 3 0 0 0-.7-.2l-.6-.2a3 3 0 0 1-.8-.3 1 1 0 0 1-.5-.9c0-.4.1-.7.4-1 .3-.3.8-.4 1.3-.4.7 0 1.2.2 1.5.6l.2.8h-.7c0-.1 0-.3-.2-.4-.1-.2-.4-.3-.9-.3a1 1 0 0 0-.6.1c-.2.1-.3.3-.3.5s.1.3.3.4l.5.2.5.1 1.1.4c.3.2.5.5.5 1 0 .3-.2.7-.5 1-.3.3-.7.4-1.4.4-.6 0-1.1-.1-1.4-.4-.3-.3-.4-.7-.4-1.2h.7Zm6.4-4.3h.8v1.2h.7v.6h-.7v3l.1.3h.6v.6l-.3.1h-.3c-.4 0-.6 0-.7-.3l-.2-.7v-3h-.6v-.6h.6v-1.2Zm2.2-.5h.8v2.3l.5-.4c.2-.2.5-.3.9-.3.6 0 1 .3 1.3.7l.2 1v3h-.8v-3.7c-.2-.3-.5-.4-.9-.4-.3 0-.6.1-.8.3-.3.2-.4.6-.4 1.3v2.3h-.8v-6.2.1Zm6.7 1.6 1 .3.6.5c.2.3.3.5.3.8l.1 1h-3.3c0 .5.1.9.3 1.1.2.3.5.4 1 .4.6 0 1-.4 1.2-.9h.7c0 .2 0 .4-.2.6 0 .2-.2.3-.3.5-.3.2-.5.4-.9.4l-.6.1c-.6 0-1-.2-1.4-.6-.4-.4-.6-1-.6-1.7 0-.8.2-1.3.6-1.8a2 2 0 0 1 1.5-.7Zm1.2 2c0-.3 0-.6-.2-.8-.2-.3-.6-.5-1-.5s-.7.1-1 .4c-.1.2-.3.5-.3 1h2.5v-.1Zm6-2 1 .3.6.5c.2.3.3.5.3.8v1h-3.2c0 .5.1.9.3 1.1.2.3.5.4 1 .4.6 0 1-.4 1.2-.9h.7c0 .2 0 .4-.2.6 0 .2-.2.3-.3.5-.3.2-.6.4-.9.4l-.6.1c-.6 0-1-.2-1.4-.6-.4-.4-.6-1-.6-1.7 0-.8.2-1.3.6-1.8a2 2 0 0 1 1.5-.7Zm1.2 2c0-.3 0-.6-.2-.8-.2-.3-.6-.5-1-.5s-.7.1-1 .4c-.2.2-.3.5-.3 1h2.5v-.1Zm1.3-1.9h1l1 1.6 1-1.6h1l-1.5 2.2 1.5 2.3h-1l-1-1.6-1.1 1.6h-1l1.6-2.3-1.5-2.2Zm5.3 3.3c0 .3 0 .4.3.6l.5.2.8-.2c.4-.2.6-.6.6-1v-.7l-.3.2h-.5l-.4.1-.6.2c-.3.1-.4.4-.4.6Zm1.9-1.5c.1 0 .2 0 .3-.2v-.3c0-.3 0-.4-.2-.6l-.8-.1c-.4 0-.7 0-.9.3l-.1.5h-.7c0-.5.1-1 .5-1.2.3-.2.7-.3 1.2-.3s1 .1 1.3.3c.3.2.5.5.5 1v2.8h.5v.6h-.5c-.3 0-.5 0-.6-.2a1 1 0 0 1-.1-.5 2 2 0 0 1-1.6.8c-.5 0-.8-.1-1-.4-.3-.2-.5-.6-.5-1s.2-.7.4-1c.3-.1.6-.3 1-.3l1.3-.2Zm4.1-1.9c.5 0 .9.1 1.2.4.3.2.5.6.6 1.2h-.8c0-.2-.1-.5-.3-.6-.1-.2-.4-.3-.7-.3-.5 0-.9.2-1 .7a2 2 0 0 0-.3 1.1c0 .5.1.9.3 1.2.2.3.5.4 1 .4.2 0 .5 0 .7-.3.2-.2.3-.4.3-.8h.8c0 .5-.3 1-.6 1.4a2 2 0 0 1-1.3.4c-.6 0-1.1-.2-1.5-.7-.3-.4-.5-1-.5-1.6 0-.8.2-1.4.6-1.8.4-.5.9-.7 1.5-.7Zm2.7-1.1h.8v1.2h.7v.6h-.7v3l.1.3h.6v.6l-.3.1h-.3c-.3 0-.6 0-.7-.3l-.2-.7v-3h-.6v-.6h.6v-1.2Zm6.5 5.2c.4 0 .7-.1 1-.4.2-.3.3-.8.3-1.3 0-.4 0-.7-.2-1-.2-.5-.5-.7-1-.7-.6 0-1 .3-1.1.8-.2.6-.2 1.4 0 2 .2.4.5.6 1 .6Zm-2-4h.8v.6l.5-.4c.3-.2.6-.3 1-.3s.9.2 1.2.6c.4.4.5 1 .5 1.7 0 1-.2 1.7-.7 2.1-.4.3-.7.4-1.2.4-.3 0-.6 0-.8-.2a2 2 0 0 1-.5-.5v2.3h-.7v-6.2l-.1-.1Zm5.6 3.3c0 .3 0 .4.2.6l.5.2.8-.2c.4-.2.6-.6.6-1v-.7l-.3.2h-.5l-.4.1-.6.2c-.3.1-.4.4-.4.6h.1Zm1.7-1.5c.2 0 .3 0 .4-.2v-.3c0-.3 0-.4-.2-.6l-.8-.1c-.4 0-.7 0-.9.3l-.1.5h-.7c0-.5.1-1 .5-1.2.3-.2.7-.3 1.2-.3s1 .1 1.3.3c.3.2.5.5.5 1v2.8h.5v.6h-.5c-.3 0-.5 0-.6-.2a1 1 0 0 1-.1-.5 2 2 0 0 1-1.6.8c-.5 0-.8-.1-1-.4-.3-.2-.5-.6-.5-1s.1-.7.4-1c.3-.1.6-.3 1-.3l1.2-.2Zm2.6-3h.7v1.2h.8v.6h-.8v3c0 .2.1.3.2.3h.6v.6l-.3.1h-.3c-.4 0-.6 0-.7-.3-.2-.1-.2-.4-.2-.7v-3h-.6v-.6h.6v-1.2Zm2.2-.5h.8v2.3l.5-.4c.2-.2.5-.3.9-.3.6 0 1 .3 1.3.7l.2 1v3h-.8v-2.9l-.1-.7c-.1-.3-.4-.4-.8-.4-.3 0-.6.1-.8.3-.3.2-.4.6-.4 1.3v2.3h-.8v-6.2Zm10 1.7h.9l-2.4 6c-.1.3-.4.4-.9.4h-.4v-.8l.4.1h.3l.2-.2.1-.4.2-.4-1.7-4.7h1l1.1 3.7 1.2-3.7Zm3.3 4.1c.5 0 .9-.2 1-.6.2-.4.3-.8.3-1.3 0-.4 0-.8-.2-1-.2-.4-.6-.6-1-.6-.5 0-.9.1-1 .5-.3.3-.4.8-.4 1.3s.1.9.3 1.2c.2.3.6.5 1 .5Zm0-4.2a2 2 0 0 1 1.5.6c.4.4.6 1 .6 1.7a3 3 0 0 1-.5 1.8c-.4.5-1 .7-1.7.7-.6 0-1-.2-1.4-.6-.4-.4-.6-1-.6-1.7 0-.8.2-1.4.6-1.8a2 2 0 0 1 1.5-.7Zm3.8.1v3.6c.2.3.5.4.8.4.6 0 1-.2 1.1-.7l.2-1v-2.3h.7v4.5h-.7v-.6c-.3.5-.8.8-1.4.8-.6 0-1-.2-1.3-.7a2 2 0 0 1-.2-.9v-3h.8v-.1Zm7 3.3c0 .3 0 .4.2.6l.6.2.8-.2c.4-.2.6-.6.6-1v-.7l-.3.2h-.5l-.4.1-.7.2c-.2.1-.3.4-.3.6Zm1.8-1.5c.2 0 .3 0 .4-.2v-.3c0-.3 0-.4-.2-.6l-.8-.1c-.4 0-.7 0-.9.3l-.2.5h-.7c0-.5.2-1 .6-1.2.3-.2.7-.3 1.2-.3s1 .1 1.3.3c.3.2.5.5.5 1v2.8h.5v.6h-.5c-.3 0-.5 0-.6-.2a1 1 0 0 1-.1-.5 2 2 0 0 1-1.6.8c-.5 0-.8-.1-1.1-.4-.3-.2-.4-.6-.4-1s.1-.7.4-1c.3-.1.6-.3 1-.3l1.2-.2Zm2.4-1.8h.8v.8l.4-.5c.2-.3.6-.4.9-.4h.1v.9h-.2a1 1 0 0 0-.9.3c-.2.2-.3.5-.3.8v2.6h-.8v-4.5Zm4.8-.1.9.3c.5.2 1 .7 1 1.3v1h-3.3c0 .5.2.9.4 1.1.2.3.5.4 1 .4s1-.4 1.1-.9h.8l-.2.6a2 2 0 0 1-.4.5c-.2.2-.5.4-.8.4l-.7.1a2 2 0 0 1-1.4-.6c-.4-.4-.6-1-.6-1.7 0-.8.2-1.3.6-1.8a2 2 0 0 1 1.6-.7Zm1.2 2c0-.3 0-.6-.2-.8-.2-.3-.6-.5-1-.5s-.7.1-1 .4c-.2.2-.3.5-.3 1h2.5v-.1Zm5.7-1.9c.3 0 .6 0 .9.2l.4.4v-.5h.7v4c0 .6 0 1.1-.2 1.4-.3.6-1 1-1.8 1-.5 0-.9-.2-1.2-.4-.4-.2-.5-.5-.6-1h.8l.2.5.8.2c.6 0 1-.2 1.2-.6l.1-1.3-.5.5-.9.2c-.5 0-.9-.2-1.3-.5-.3-.4-.5-1-.5-1.7 0-.8.2-1.4.5-1.8.4-.4.8-.6 1.4-.6Zm1.3 2.3c0-.6 0-1-.3-1.3-.2-.2-.5-.4-.9-.4a1 1 0 0 0-1 .8 3 3 0 0 0-.2 1c0 .5 0 1 .3 1.2.2.2.5.4.8.4.5 0 1-.3 1.1-.8.2-.2.2-.6.2-1v.1Zm3.7 1.8c.5 0 .8-.2 1-.6.2-.4.3-.8.3-1.3 0-.4 0-.8-.2-1-.2-.4-.6-.6-1.1-.6-.5 0-.8.1-1 .5-.2.3-.4.8-.4 1.3s.2.9.4 1.2c.2.3.5.5 1 .5Zm0-4.2c.6 0 1 .2 1.5.6.4.4.6 1 .6 1.7a3 3 0 0 1-.6 1.8c-.3.5-.9.7-1.6.7a2 2 0 0 1-1.5-.6c-.4-.4-.5-1-.5-1.7 0-.8.2-1.4.5-1.8a2 2 0 0 1 1.6-.7Zm3 .2h.7v4.4h-.7v-4.4Zm0-1.7h.7v.8h-.7v-.8Zm1.9 1.6h.7v.7c.2-.3.4-.5.7-.6l.8-.2c.6 0 1 .3 1.3.7l.2 1v3h-.8v-2.9l-.1-.7c-.2-.2-.4-.4-.8-.4h-.4l-.6.4-.2.5v3h-.8v-4.5Zm6.4 0c.3 0 .6 0 .9.2l.4.4v-.5h.7v4c0 .6 0 1.1-.2 1.4-.3.6-1 1-1.8 1-.5 0-.9-.2-1.2-.4-.4-.2-.5-.5-.6-1h.8l.2.5.8.2c.6 0 1-.2 1.2-.6l.1-1.3-.5.5-.9.2c-.5 0-.9-.2-1.3-.5-.3-.4-.5-1-.5-1.7 0-.8.2-1.4.5-1.8a2 2 0 0 1 1.4-.6Zm1.3 2.3c0-.6 0-1-.3-1.3-.2-.2-.5-.4-.9-.4a1 1 0 0 0-1 .8 3 3 0 0 0-.2 1c0 .5 0 1 .3 1.2.2.2.5.4.8.4.6 0 1-.3 1.2-.8l.1-1v.1Zm4.4-3.5h.8v1.2h.7v.6h-.7v3c0 .2 0 .3.2.3h.5v.6l-.3.1h-.3c-.3 0-.6 0-.7-.3l-.2-.7v-3h-.6v-.6h.6v-1.2Zm4.1 5.3c.5 0 .8-.2 1-.6.2-.4.3-.8.3-1.3 0-.4 0-.8-.2-1-.2-.4-.6-.6-1.1-.6-.5 0-.8.1-1 .5-.3.3-.4.8-.4 1.3s.1.9.4 1.2c.2.3.5.5 1 .5Zm0-4.2c.6 0 1 .2 1.5.6.4.4.6 1 .6 1.7a3 3 0 0 1-.6 1.8c-.3.5-.9.7-1.6.7a2 2 0 0 1-1.5-.6c-.4-.4-.5-1-.5-1.7 0-.8.2-1.4.5-1.8a2 2 0 0 1 1.6-.7Zm5.5-1.1h.8v1.2h.7v.6h-.7v3l.1.3h.6v.6l-.3.1h-.3c-.3 0-.6 0-.7-.3l-.2-.7v-3h-.6v-.6h.6v-1.2Zm2.9 4.5c0 .3 0 .4.2.6l.5.2.8-.2c.4-.2.7-.6.7-1v-.7l-.4.2h-.4l-.5.1-.6.2c-.2.1-.4.4-.4.6h.1Zm1.8-1.5c.2 0 .3 0 .3-.2v-.3c0-.3 0-.4-.2-.6l-.8-.1c-.4 0-.7 0-.8.3l-.2.5h-.7c0-.5.2-1 .5-1.2l1.2-.3c.6 0 1 .1 1.3.3.4.2.5.5.5 1v2.8h.5v.6h-.5c-.3 0-.5 0-.6-.2a1 1 0 0 1-.1-.5 2 2 0 0 1-1.6.8c-.4 0-.8-.1-1-.4-.3-.2-.5-.6-.5-1s.2-.7.4-1c.3-.1.6-.3 1-.3l1.3-.2Zm2.3-3.4h.8v3.5l2-1.9h.9l-1.7 1.7 1.8 2.8h-1l-1.4-2.2-.6.6v1.6h-.8v-6.1Zm6.2 1.5c.4 0 .7.1 1 .3l.7.5.3.8v1H559c0 .5.2.9.4 1.1.2.3.5.4.9.4.6 0 1-.4 1.2-.9h.8l-.2.6a2 2 0 0 1-.4.5c-.2.2-.5.4-.9.4l-.6.1a2 2 0 0 1-1.4-.6c-.4-.4-.6-1-.6-1.7 0-.8.2-1.3.6-1.8a2 2 0 0 1 1.5-.7Zm1.3 2a2 2 0 0 0-.3-.8c-.2-.3-.5-.5-1-.5-.3 0-.6.1-.9.4-.2.2-.3.5-.3 1h2.5v-.1Zm3.2 1.8h.8v.8h-.8v-.8Zm-1.4-3.4c0-.6.1-1.1.5-1.5a2 2 0 0 1 1.4-.5c.5 0 1 .1 1.3.4.4.4.5.8.5 1.3 0 .3 0 .5-.2.7 0 .2-.3.4-.7.8l-.5.7-.1.8h-.8l.1-1 .7-.8.3-.4.3-.3.1-.5c0-.3 0-.6-.2-.8-.2-.2-.5-.3-.8-.3-.5 0-.8.2-1 .6a2 2 0 0 0-.2.8h-.7Zm7.2-1.9h.8v2.5h3.2V208h.9v6.1h-.9v-2.9h-3.2v3h-.8v-6.3Zm7.9 5.7c.5 0 .8-.2 1-.6.2-.4.3-.8.3-1.3 0-.4 0-.8-.2-1-.2-.4-.6-.6-1.1-.6-.5 0-.8.1-1 .5-.2.3-.3.8-.3 1.3s0 .9.3 1.2c.2.3.5.5 1 .5Zm0-4.2c.6 0 1 .2 1.5.6.4.4.6 1 .6 1.7a3 3 0 0 1-.5 1.8c-.4.5-1 .7-1.7.7a2 2 0 0 1-1.5-.6c-.3-.4-.5-1-.5-1.7 0-.8.2-1.4.6-1.8a2 2 0 0 1 1.5-.7Zm3.3.1.9 3.6.9-3.6h.8l1 3.6.8-3.6h.8l-1.3 4.5h-.8l-1-3.4-.8 3.4h-.8l-1.3-4.5h.8Zm8.9 3.3c0 .3 0 .4.2.6l.6.2.8-.2c.4-.2.6-.6.6-1v-.7l-.4.2h-.4l-.4.1-.7.2c-.2.1-.3.4-.3.6Zm1.8-1.5c.2 0 .3 0 .4-.2v-.3c0-.3 0-.4-.2-.6l-.8-.1c-.4 0-.7 0-.9.3l-.2.5h-.7c0-.5.2-1 .6-1.2.3-.2.7-.3 1.2-.3s1 .1 1.3.3c.3.2.5.5.5 1v2.8h.5v.6h-.6c-.2 0-.4 0-.5-.2a1 1 0 0 1-.2-.5 2 2 0 0 1-.6.6 2 2 0 0 1-1 .2c-.4 0-.7-.1-1-.4-.3-.2-.4-.6-.4-1s.1-.7.4-1c.3-.1.6-.3 1-.3l1.2-.2Zm2.5-1.8h.6v.8l.5-.5c.2-.3.6-.4.9-.4h.1v.9h-.2a1 1 0 0 0-1 .3l-.2.8v2.6h-.8v-4.5h.1Zm4.7-.1.9.3.7.5.3.8v1h-3.3c0 .5.2.9.4 1.1.2.3.5.4.9.4.6 0 1-.4 1.2-.9h.8l-.2.6a2 2 0 0 1-.4.5c-.2.2-.5.4-.8.4l-.7.1a2 2 0 0 1-1.4-.6c-.4-.4-.6-1-.6-1.7 0-.8.2-1.3.6-1.8a2 2 0 0 1 1.6-.7Zm1.2 2c0-.3 0-.6-.2-.8-.3-.3-.6-.5-1-.5s-.7.1-1 .4c-.2.2-.3.5-.3 1h2.5v-.1Zm6.9-1.9h.8l-2.3 6c-.2.3-.5.4-1 .4h-.4v-.8l.5.1h.3l.1-.2.2-.4.2-.4-1.7-4.7h.9l1.2 3.7 1.2-3.7Zm3.2 4.1c.6 0 1-.2 1.1-.6.2-.4.3-.8.3-1.3 0-.4 0-.8-.2-1-.2-.4-.6-.6-1.1-.6-.5 0-.8.1-1 .5-.2.3-.3.8-.3 1.3s0 .9.3 1.2c.2.3.5.5 1 .5h-.1Zm.1-4.2c.6 0 1 .2 1.5.6.4.4.6 1 .6 1.7a3 3 0 0 1-.6 1.8c-.3.5-.9.7-1.6.7a2 2 0 0 1-1.5-.6c-.3-.4-.5-1-.5-1.7 0-.8.2-1.4.6-1.8a2 2 0 0 1 1.5-.7Zm3.7.1v3l.1.6c.2.3.4.4.8.4.5 0 .9-.2 1-.7.2-.3.2-.6.2-1v-2.3h.8v4.5h-.7v-.6l-.4.4c-.3.2-.6.4-1 .4-.7 0-1.1-.2-1.3-.7a2 2 0 0 1-.2-.9v-3h.7v-.1Zm8.1 0c.3 0 .6 0 .9.2l.4.4v-.5h.7v4c0 .6 0 1.1-.2 1.4-.3.6-1 1-1.8 1-.5 0-.9-.2-1.2-.4-.4-.2-.5-.5-.6-1h.8c0 .2 0 .4.2.5l.8.2c.6 0 1-.2 1.2-.6l.1-1.3-.5.5-.9.2c-.5 0-1-.2-1.3-.5-.3-.4-.5-1-.5-1.7 0-.8.2-1.4.5-1.8.4-.4.8-.6 1.4-.6Zm1.3 2.3c0-.6 0-1-.3-1.3-.2-.2-.5-.4-.9-.4a1 1 0 0 0-1 .8 3 3 0 0 0-.2 1c0 .5 0 1 .3 1.2.2.2.4.4.8.4.5 0 1-.3 1.1-.8.2-.2.2-.6.2-1v.1Zm3.7 1.8c.5 0 .8-.2 1-.6.2-.4.3-.8.3-1.3 0-.4 0-.8-.2-1-.2-.4-.6-.6-1.1-.6-.5 0-.8.1-1 .5-.3.3-.4.8-.4 1.3s.1.9.4 1.2c.2.3.5.5 1 .5Zm0-4.2c.6 0 1 .2 1.5.6.4.4.6 1 .6 1.7a3 3 0 0 1-.6 1.8c-.3.5-.9.7-1.6.7a2 2 0 0 1-1.5-.6c-.4-.4-.5-1-.5-1.7 0-.8.2-1.4.5-1.8a2 2 0 0 1 1.6-.7Zm3 .2h.7v4.4h-.7v-4.4Zm0-1.7h.7v.8h-.7v-.8Zm1.9 1.6h.7v.7c.2-.3.4-.5.7-.6l.8-.2c.6 0 1 .3 1.3.7l.2 1v3h-.8v-2.9l-.1-.7c-.2-.2-.4-.4-.8-.4h-.4l-.6.4-.2.5v3h-.8v-4.5Zm6.4 0c.3 0 .6 0 .9.2l.4.4v-.5h.7v4c0 .6 0 1.1-.2 1.4-.3.6-1 1-1.8 1-.5 0-.9-.2-1.2-.4-.4-.2-.5-.5-.6-1h.8l.2.5.8.2c.6 0 1-.2 1.2-.6l.1-1.3-.5.5-.9.2c-.5 0-.9-.2-1.3-.5-.3-.4-.5-1-.5-1.7 0-.8.2-1.4.5-1.8a2 2 0 0 1 1.4-.6Zm1.3 2.3c0-.6 0-1-.3-1.3-.2-.2-.5-.4-.9-.4a1 1 0 0 0-1 .8 3 3 0 0 0-.2 1c0 .5 0 1 .3 1.2.2.2.5.4.8.4.5 0 1-.3 1.2-.8l.1-1v.1Zm4.5-3.5h.7v1.2h.7v.6h-.7v3c0 .2 0 .3.2.3h.5v.6l-.3.1h-.3c-.3 0-.6 0-.7-.3l-.2-.7v-3h-.6v-.6h.6v-1.2h.1Zm4 5.3c.5 0 .8-.2 1-.6.2-.4.3-.8.3-1.3 0-.4 0-.8-.2-1-.2-.4-.6-.6-1.1-.6-.5 0-.8.1-1 .5-.3.3-.4.8-.4 1.3s.1.9.4 1.2c.2.3.5.5 1 .5Zm0-4.2c.6 0 1 .2 1.5.6.4.4.6 1 .6 1.7a3 3 0 0 1-.6 1.8c-.3.5-.9.7-1.6.7a2 2 0 0 1-1.5-.6c-.4-.4-.5-1-.5-1.7 0-.8.2-1.4.5-1.8a2 2 0 0 1 1.6-.7Zm-254 8.5h.7v2.3l.5-.5 1-.2c.6 0 1 .2 1.3.7l.2 1v3h-.8v-3l-.1-.7c-.2-.2-.4-.3-.8-.3-.3 0-.6 0-.9.3-.2.2-.4.6-.4 1.2v2.4h-.7v-6.2Zm5.4 5.1c0 .1 0 .3.2.4.2.2.4.2.6.2.2 0 .5 0 .8-.2.4-.2.6-.5.6-1v-.6l-.4.2h-.4l-.5.1-.6.2c-.2.1-.3.3-.3.6v.1Zm1.8-1.6.4-.2v-.3c0-.3 0-.5-.3-.6l-.8-.2c-.4 0-.6.1-.8.4-.1 0-.2.2-.2.5h-.7c0-.6.2-1 .5-1.2.4-.2.8-.3 1.3-.3s1 0 1.2.3c.4.2.5.5.5 1v2.7l.3.1h.2v.5l-.2.1h-.3c-.2 0-.4 0-.5-.3a1 1 0 0 1-.2-.4 2 2 0 0 1-1.6.8c-.4 0-.8-.2-1-.4-.3-.3-.4-.6-.4-1s.1-.7.4-1c.2-.2.6-.3 1-.4l1.2-.1Zm2.4-1.8h.7v.6l.7-.5.8-.2c.6 0 1 .2 1.3.7l.2 1v3h-.8v-3l-.1-.6c-.2-.3-.4-.4-.8-.4h-.4l-.6.4-.2.5v3h-.8v-4.5Zm5.3 2.4c0 .4 0 .8.3 1.1.2.3.5.5 1 .5.3 0 .6-.1.8-.4.2-.3.4-.8.4-1.3 0-.6-.2-1-.4-1.3a1 1 0 0 0-.9-.4c-.3 0-.6.1-.9.4-.2.3-.3.7-.3 1.3v.1Zm1.1-2.5c.3 0 .6 0 .9.2l.4.5v-2.3h.8v6.2h-.7v-.6c-.2.3-.4.5-.7.6l-.8.2c-.5 0-1-.2-1.3-.7-.4-.4-.5-1-.5-1.6 0-.7.1-1.3.5-1.8.3-.4.8-.7 1.4-.7Zm3.2-1.6h.8v6.2h-.8v-6.2Zm3.8 1.6c.3 0 .6 0 1 .2l.6.6.3.8v1h-3.2c0 .5 0 .8.3 1.1.2.3.5.4 1 .4.6 0 1-.4 1.2-.9h.7l-.2.6a2 2 0 0 1-.4.4c-.2.3-.5.4-.8.5h-.6c-.6 0-1-.1-1.5-.5-.4-.4-.6-1-.6-1.8 0-.7.2-1.3.6-1.7a2 2 0 0 1 1.6-.7Zm1.2 2c0-.3 0-.6-.2-.8-.2-.4-.6-.5-1-.5s-.7 0-1 .3c-.2.3-.3.6-.3 1h2.5Zm5.8-2c.5 0 1 0 1.3.3.3.3.5.7.5 1.3h-.7a1 1 0 0 0-.3-.7c-.2-.2-.4-.3-.8-.3-.5 0-.8.3-1 .8l-.2 1c0 .5 0 1 .3 1.2.2.3.5.5.9.5.3 0 .5-.1.7-.3l.4-.8h.7c0 .6-.3 1-.6 1.3a2 2 0 0 1-1.3.4c-.6 0-1-.2-1.4-.6-.3-.4-.5-1-.5-1.6 0-.8.2-1.4.6-1.9.3-.4.8-.6 1.4-.6Zm2.6-1.6h.8v2.3l.4-.5 1-.2c.6 0 1 .2 1.3.7l.2 1v3h-.8v-3l-.1-.7c-.2-.2-.4-.3-.8-.3-.3 0-.6 0-.9.3-.2.2-.3.6-.3 1.2v2.4h-.8v-6.2Zm5.4 5.1c0 .1 0 .3.2.4.2.2.4.2.6.2.3 0 .5 0 .8-.2.4-.2.6-.5.6-1v-.6l-.4.2h-.4l-.4.1-.7.2c-.2.1-.3.3-.3.6v.1Zm1.8-1.6.4-.2v-.3c0-.3 0-.5-.3-.6l-.7-.2c-.4 0-.7.1-.9.4l-.2.5h-.7c0-.6.2-1 .6-1.2.3-.2.7-.3 1.2-.3s1 0 1.3.3c.3.2.5.5.5 1v2.7l.2.1h.3v.5l-.3.1h-.3c-.2 0-.4 0-.5-.3a1 1 0 0 1-.2-.4 2 2 0 0 1-1.6.8c-.4 0-.7-.2-1-.4-.3-.3-.4-.6-.4-1s.1-.7.4-1c.2-.2.6-.3 1-.4l1.2-.1Zm2.4-3.5h.8v6.2h-.8v-6.2Zm1.9 0h.8v6.2h-.8v-6.2Zm3.9 1.6c.2 0 .5 0 .8.2l.7.6c.2.2.3.5.3.8l.1 1h-3.3c0 .5.1.8.3 1.1.2.3.5.4 1 .4.6 0 1-.4 1.2-.9h.7l-.2.6-.3.4a2 2 0 0 1-.9.5h-.6c-.6 0-1-.1-1.4-.5-.4-.4-.6-1-.6-1.8 0-.7.2-1.3.6-1.7a2 2 0 0 1 1.5-.7h.1Zm1.1 2c0-.3 0-.6-.2-.8-.2-.4-.6-.5-1-.5s-.7 0-1 .3c-.1.3-.3.6-.3 1h2.5Zm1.7-1.9h.7v.6l.7-.5.8-.2c.7 0 1.1.2 1.3.7l.2 1v3h-.8v-3.6a1 1 0 0 0-.8-.4h-.5l-.5.4-.3.5v3h-.8v-4.5Zm6.4-.1c.4 0 .7.1 1 .3l.4.4v-.6h.7v4.1c0 .6-.1 1-.3 1.4-.3.6-.9 1-1.8 1-.4 0-.8-.2-1.2-.4-.3-.2-.5-.6-.5-1h.7c0 .2.1.3.3.4.1.2.4.3.8.3.5 0 1-.2 1.1-.6l.2-1.3-.6.5-.8.2c-.5 0-1-.2-1.3-.6-.4-.3-.6-.9-.6-1.7 0-.7.2-1.3.6-1.7.4-.5.8-.7 1.3-.7Zm1.4 2.3c0-.5-.1-1-.4-1.2a1 1 0 0 0-.8-.4 1 1 0 0 0-1.1.7 3 3 0 0 0-.2 1c0 .6.1 1 .3 1.3.2.2.5.3.8.3.6 0 1-.2 1.2-.7l.2-1Zm3.7-2.3c.3 0 .6 0 1 .2.6.3 1 .8 1 1.4v1H456c0 .5.1.8.3 1.1.2.3.5.4 1 .4.6 0 1-.4 1.2-.9h.7l-.2.6-.3.4a2 2 0 0 1-.9.5h-.6c-.6 0-1-.1-1.4-.5-.4-.4-.6-1-.6-1.8 0-.7.2-1.3.6-1.7a2 2 0 0 1 1.5-.7Zm1.2 2c0-.3 0-.6-.2-.8-.2-.4-.6-.5-1-.5s-.7 0-1 .3c-.2.3-.3.6-.3 1h2.5Zm2.2 1.2c0 .3 0 .4.2.6.2.2.5.3 1 .3l.7-.1c.2-.2.3-.3.3-.6 0-.2 0-.3-.2-.4a3 3 0 0 0-.7-.3l-.6-.1a3 3 0 0 1-.8-.3 1 1 0 0 1-.5-.9c0-.4.1-.8.4-1 .3-.3.8-.4 1.3-.4.7 0 1.1.2 1.4.6.2.2.3.5.3.8h-.7c0-.2 0-.3-.2-.5s-.5-.3-.9-.3a1 1 0 0 0-.6.2c-.2.1-.3.3-.3.4 0 .2.1.4.3.5l.5.2.5.1c.6.1 1 .3 1.1.4.3.2.5.5.5 1 0 .3-.2.7-.5 1-.3.2-.8.4-1.4.4-.7 0-1.1-.2-1.4-.5-.3-.3-.4-.7-.5-1.1h.8Zm6.8.3c0 .1 0 .3.3.4.1.2.3.2.5.2.3 0 .5 0 .8-.2.4-.2.6-.5.6-1v-.6l-.3.2h-.5l-.4.1-.6.2c-.3.1-.4.3-.4.6v.1Zm1.8-1.6.4-.2v-.3c0-.3 0-.5-.2-.6l-.8-.2c-.4 0-.7.1-.9.4l-.1.5h-.7c0-.6.1-1 .5-1.2.3-.2.7-.3 1.2-.3s1 0 1.3.3c.3.2.5.5.5 1v2.7l.2.1h.2v.5l-.2.1h-.2c-.3 0-.5 0-.6-.3l-.1-.4a2 2 0 0 1-1.6.8c-.5 0-.8-.2-1-.4-.3-.3-.5-.6-.5-1s.2-.7.4-1l1-.4 1.2-.1Zm2.4-1.8h.7v.6l.7-.5.8-.2c.7 0 1.1.2 1.3.7l.2 1v3h-.8v-3.6a1 1 0 0 0-.8-.4h-.5l-.5.4-.3.5v3h-.8v-4.5Zm5.3 2.4c0 .4.1.8.3 1.1.2.3.5.5 1 .5.4 0 .6-.1.9-.4.2-.3.3-.8.3-1.3 0-.6-.1-1-.3-1.3-.3-.3-.6-.4-1-.4a1 1 0 0 0-.8.4c-.3.3-.4.7-.4 1.3v.1Zm1.1-2.5c.4 0 .7 0 1 .2l.4.5v-2.3h.7v6.2h-.7v-.6l-.6.6-.8.2c-.5 0-1-.2-1.3-.7-.4-.4-.6-1-.6-1.6 0-.7.2-1.3.5-1.8.3-.4.8-.7 1.4-.7Zm6.1 3.2c0 .3 0 .4.2.6.2.2.5.3 1 .3l.7-.1c.2-.2.3-.3.3-.6 0-.2 0-.3-.2-.4a3 3 0 0 0-.7-.3l-.6-.1a3 3 0 0 1-.8-.3 1 1 0 0 1-.5-.9c0-.4.1-.8.4-1 .3-.3.8-.4 1.3-.4.7 0 1.1.2 1.4.6.2.2.3.5.3.8h-.7c0-.2 0-.3-.2-.5s-.5-.3-.9-.3a1 1 0 0 0-.6.2c-.2.1-.3.3-.3.4 0 .2.1.4.3.5l.5.2.5.1c.6.1 1 .3 1.1.4.3.2.5.5.5 1 0 .3-.2.7-.5 1-.3.2-.8.4-1.4.4-.7 0-1.1-.2-1.4-.5-.3-.3-.4-.7-.5-1.1h.8Zm5.8-3.2c.2 0 .5 0 .8.2l.7.6c.2.2.3.5.3.8l.1 1h-3.3c0 .5.1.8.3 1.1.2.3.5.4 1 .4.6 0 1-.4 1.2-.9h.7l-.2.6c-.2.5-.7.9-1.2 1h-.6c-.6 0-1-.2-1.4-.6-.4-.4-.6-1-.6-1.8 0-.7.2-1.3.6-1.7a2 2 0 0 1 1.5-.7h.1Zm1.1 2c0-.3 0-.6-.2-.8-.2-.4-.5-.5-1-.5-.4 0-.7 0-1 .3-.1.3-.3.6-.3 1h2.5Zm1.9-3.2h.8v1.3h.7v.6h-.8v3l.2.3h.6v.6h-.6c-.4 0-.6 0-.7-.2-.2-.2-.2-.4-.2-.7v-3h-.6v-.6h.6v-1.3Zm4.6-.4h.7v2.2c.3-.4.8-.6 1.3-.6.6 0 1 .2 1.4.6.4.3.5 1 .5 1.7a3 3 0 0 1-.5 1.7c-.3.5-.8.8-1.4.8-.4 0-.6-.1-.9-.3a2 2 0 0 1-.4-.5v.6h-.7v-6.2Zm2 5.7c.4 0 .7-.2.9-.5.2-.3.3-.8.3-1.3s-.1-.9-.3-1.2a1 1 0 0 0-1-.4c-.3 0-.6 0-.9.3-.2.3-.3.7-.3 1.3l.1 1c.2.5.6.8 1.1.8h.1Zm3.4-.6c0 .1 0 .3.2.4.2.2.4.2.6.2.3 0 .5 0 .8-.2.4-.2.6-.5.6-1v-.6l-.3.2h-.5l-.4.1-.6.2c-.3.1-.4.3-.4.6v.1Zm1.8-1.6.4-.2v-.3c0-.3 0-.5-.2-.6l-.8-.2c-.4 0-.7.1-.9.4l-.1.5h-.8c0-.6.2-1 .6-1.2.3-.2.7-.3 1.2-.3s1 0 1.3.3c.3.2.5.5.5 1v2.7l.2.1h.3v.5l-.3.1h-.2c-.3 0-.5 0-.6-.3l-.1-.4a2 2 0 0 1-1.6.8c-.5 0-.8-.2-1-.4-.4-.3-.5-.6-.5-1s.1-.7.4-1l1-.4 1.2-.1Zm4.2-1.9c.5 0 .9 0 1.2.3.3.3.5.7.6 1.3h-.8a1 1 0 0 0-.3-.7c-.1-.2-.4-.3-.7-.3a1 1 0 0 0-1 .8c-.2.3-.3.6-.3 1 0 .5.1 1 .3 1.2.2.3.5.5 1 .5.2 0 .5-.1.7-.3.1-.2.3-.4.3-.8h.8c-.1.6-.3 1-.7 1.3a2 2 0 0 1-1.3.4 2 2 0 0 1-1.4-.6c-.3-.4-.5-1-.5-1.6 0-.8.2-1.4.6-1.9a2 2 0 0 1 1.5-.6Zm2.5-1.5h.7v3.5l2-1.9h1l-1.8 1.7 1.9 2.8h-1l-1.4-2.3-.7.6v1.7h-.7V218Zm4.8 4.7c0 .3 0 .4.2.6.2.2.5.3 1 .3l.7-.1c.2-.2.3-.3.3-.6 0-.2 0-.3-.2-.4a3 3 0 0 0-.7-.3l-.6-.1a3 3 0 0 1-.8-.3 1 1 0 0 1-.5-.9c0-.4.1-.8.5-1 .3-.3.7-.4 1.2-.4.7 0 1.2.2 1.5.6.2.2.2.5.2.8h-.7c0-.2 0-.3-.2-.5-.1-.2-.4-.3-.9-.3a1 1 0 0 0-.6.2c-.2.1-.2.3-.2.4 0 .2 0 .4.3.5l.5.2.5.1 1 .4c.3.2.5.5.5 1 0 .3-.2.7-.5 1-.3.2-.7.4-1.4.4a2 2 0 0 1-1.4-.5c-.3-.3-.4-.7-.4-1.1h.7Zm5.4.5h.8v1h-.8v-1Zm-1.4-3.3c0-.6.1-1.1.5-1.5.3-.4.8-.6 1.4-.6.5 0 1 .2 1.3.5.3.3.5.7.5 1.2 0 .3 0 .6-.2.8l-.7.8c-.3.2-.5.5-.5.6l-.2.8h-.7l.1-1c.1-.2.3-.5.7-.8l.3-.3.3-.3.1-.6c0-.3 0-.5-.2-.7-.2-.2-.5-.3-.8-.3-.5 0-.8.2-1 .5a2 2 0 0 0-.2.9h-.7Zm-120.1 54.3h-3l-.7 1.7h-1.8l3-8.3h2l2.9 8.3h-2l-.4-1.7Zm-.5-1.4-1-3.3-1.1 3.3h2.1Zm9.1-.8H407c0-.3 0-.5-.2-.7-.2-.2-.4-.3-.8-.3-.6 0-1 .2-1.1.8l-.2 1.1c0 .5 0 .8.2 1.1.2.5.5.8 1 .8.4 0 .7-.1.8-.3.2-.2.3-.5.3-.8h1.7c0 .5-.2 1-.6 1.4-.5.7-1.2 1-2.2 1-1 0-1.7-.3-2.2-.9a4 4 0 0 1-.7-2.3c0-1 .3-1.8.8-2.4.5-.6 1.2-.9 2.1-.9.8 0 1.4.2 2 .5.4.4.7 1 .8 1.9h.1Zm3.9 2.7v1.2h-.8c-.7.1-1.2 0-1.5-.3-.2-.2-.3-.5-.3-.9V271h-.8v-1.2h.8v-1.7h1.6v1.7h1v1.2h-1v3.7h1ZM395.5 287l1.2 5 1.4-5h.9l1.4 5 1.1-5h1l-1.7 6.1h-.8l-1.5-5-1.4 5h-.9l-1.6-6.1h.9Zm7.6 0h.8v2.2l.5-.4c.2-.2.5-.3.9-.3.6 0 1 .3 1.3.7l.2 1v3h-.8v-2.9l-.1-.7c-.1-.3-.4-.4-.8-.4-.3 0-.6.1-.8.3-.3.2-.4.7-.4 1.3v2.3h-.8V287Zm5.4 5c0 .2 0 .3.2.5l.6.2.8-.2c.4-.2.6-.6.6-1v-.6l-.3.1a3 3 0 0 1-.5 0l-.4.1-.6.2c-.3.1-.4.4-.4.6v.1Zm1.8-1.6c.2 0 .3 0 .4-.2v-.3c0-.3 0-.4-.2-.6l-.8-.1c-.4 0-.7 0-.9.3l-.1.5h-.8c0-.5.2-1 .6-1.1.3-.3.7-.4 1.2-.4s1 .1 1.3.3c.3.2.5.5.5 1v2.8h.5v.6h-.5c-.3 0-.5 0-.6-.2a1 1 0 0 1-.1-.5 2 2 0 0 1-1.6.8c-.5 0-.8-.1-1-.4-.4-.2-.5-.6-.5-1s.1-.7.4-1c.3-.1.6-.3 1-.3l1.2-.2Zm2.6-3h.7v1.2h.8v.7h-.8v2.9c0 .2.1.3.2.3h.6v.6l-.3.1h-.3c-.4 0-.6 0-.7-.3-.2-.1-.2-.4-.2-.7v-3h-.6v-.6h.6v-1.2Zm3.1-.4-.2 2.4h-.4l-.2-2.4h.8Zm1.2 4.7.2.6c.2.3.5.4 1 .4.3 0 .5 0 .7-.2.3-.1.4-.3.4-.6 0-.2-.1-.3-.3-.4a3 3 0 0 0-.6-.2l-.6-.2a3 3 0 0 1-.9-.3 1 1 0 0 1-.5-.9c0-.4.2-.7.5-1 .3-.3.7-.4 1.2-.4.7 0 1.2.2 1.5.6.2.3.3.5.3.8h-.8l-.1-.4c-.2-.2-.5-.3-1-.3a1 1 0 0 0-.6.1l-.2.5c0 .2 0 .3.3.4l.5.2.5.1 1 .4c.4.2.5.5.5 1 0 .3-.1.7-.4 1-.4.3-.8.4-1.4.4-.7 0-1.2-.1-1.5-.4-.2-.3-.4-.7-.4-1.2h.7Zm6.4-4.3h.8v1.2h.7v.7h-.7v2.9c0 .2 0 .3.2.3h.5v.6l-.3.1h-.3c-.3 0-.6 0-.7-.3l-.2-.7v-3h-.6v-.6h.6v-1.2Zm2.3-.4h.7v2.2l.5-.4c.3-.2.6-.3 1-.3.6 0 1 .3 1.3.7l.1 1v3h-.7v-2.9c0-.3 0-.6-.2-.7-.1-.3-.4-.4-.7-.4l-.9.3c-.2.2-.4.7-.4 1.3v2.3h-.7V287Zm6.6 1.5c.4 0 .7.1 1 .3l.7.5.3.8v1h-3.3c0 .5.1.9.3 1.1.3.3.6.4 1 .4.6 0 1-.4 1.2-.9h.8l-.2.6a2 2 0 0 1-.4.5c-.2.2-.5.4-.9.4l-.6.1a2 2 0 0 1-1.4-.6c-.4-.4-.6-1-.6-1.7s.2-1.3.6-1.8a2 2 0 0 1 1.5-.7Zm1.3 2a2 2 0 0 0-.3-.8c-.2-.3-.5-.5-1-.5-.4 0-.6.1-.9.4-.2.2-.3.5-.4 1h2.6v-.1Zm4.6 1.5c0 .2.1.3.3.5l.5.2.8-.2c.4-.2.7-.6.7-1v-.6l-.4.1a3 3 0 0 1-.4 0l-.5.1-.6.2c-.2.1-.4.4-.4.6v.1Zm1.9-1.6c.1 0 .3 0 .3-.2v-.3c0-.3 0-.4-.2-.6l-.8-.1c-.4 0-.7 0-.8.3l-.2.5h-.7c0-.5.2-1 .5-1.1a2 2 0 0 1 1.2-.4c.6 0 1 .1 1.3.3.3.2.5.5.5 1v2.8h.5v.6h-.5c-.3 0-.5 0-.6-.2a1 1 0 0 1-.1-.5 2 2 0 0 1-1.6.8c-.4 0-.8-.1-1-.4-.3-.2-.5-.6-.5-1s.2-.7.4-1c.3-.1.6-.3 1-.3l1.3-.2Zm4.3 2.2c.3 0 .6-.1.8-.4.3-.3.4-.7.4-1.3 0-.4 0-.7-.2-1-.2-.5-.5-.7-1-.7-.6 0-1 .3-1.1.8-.2.6-.2 1.4 0 2 .2.4.5.6 1 .6h.1Zm-2-4h.7v.7l.5-.5c.3-.2.6-.3 1-.3s.9.2 1.2.6c.4.4.6 1 .6 1.7 0 1-.3 1.7-.8 2.1-.3.3-.7.4-1.1.4-.4 0-.7 0-.9-.2a2 2 0 0 1-.4-.5v2.3h-.8v-6.3Zm6.8 4c.3 0 .6-.1.8-.4.3-.3.4-.7.4-1.3 0-.4 0-.7-.2-1-.2-.5-.5-.7-1-.7-.6 0-1 .3-1.1.8-.2.6-.2 1.4 0 2 .2.4.5.6 1 .6h.1Zm-2-4h.7v.7l.5-.5c.3-.2.6-.3 1-.3s.9.2 1.2.6c.4.4.6 1 .6 1.7 0 1-.3 1.7-.8 2.1-.3.3-.7.4-1.1.4-.4 0-.7 0-.9-.2a2 2 0 0 1-.5-.5v2.3h-.7v-6.3Zm4.9 0h.7v.8l.4-.5c.2-.3.6-.4.9-.4h.2v.9h-.3a1 1 0 0 0-.9.3c-.2.2-.3.5-.3.9v2.5h-.7v-4.5Zm4.7 4.1c.4 0 .8-.2 1-.6l.2-1.3c0-.4 0-.7-.2-1-.2-.4-.6-.6-1-.6-.5 0-.9.1-1 .5a2 2 0 0 0-.4 1.3c0 .5.1.9.3 1.2.2.3.6.5 1 .5h.1Zm0-4.2c.5 0 1 .2 1.4.6.4.4.6 1 .6 1.7a3 3 0 0 1-.5 1.8c-.4.5-1 .7-1.7.7-.6 0-1-.2-1.4-.6-.4-.4-.6-1-.6-1.7 0-.8.2-1.4.6-1.8a2 2 0 0 1 1.5-.7h.1Zm3.5 3.5c0 .2 0 .3.2.5l.6.2.8-.2c.4-.2.6-.6.6-1v-.6l-.3.1a3 3 0 0 1-.5 0l-.4.1-.7.2c-.2.1-.3.4-.3.6v.1Zm1.8-1.6c.2 0 .3 0 .4-.2v-.3c0-.3 0-.4-.2-.6l-.8-.1c-.4 0-.7 0-.9.3l-.2.5h-.7c0-.5.2-1 .6-1.1.3-.3.7-.4 1.2-.4s1 .1 1.3.3c.3.2.5.5.5 1v2.8h.5v.6h-.6c-.2 0-.4 0-.5-.2a1 1 0 0 1-.1-.5 2 2 0 0 1-1.6.8c-.5 0-.8-.1-1.1-.4-.3-.2-.4-.6-.4-1s.1-.7.4-1c.3-.1.6-.3 1-.3l1.2-.2Zm4.2-1.9c.5 0 .9.1 1.2.4.3.2.5.6.6 1.3h-.8c0-.3-.1-.6-.3-.7-.1-.2-.4-.3-.7-.3-.5 0-.9.2-1 .7a2 2 0 0 0-.3 1.1c0 .5.1.9.3 1.2.2.3.5.4.9.4.3 0 .6 0 .8-.3.1-.2.3-.4.3-.8h.8c-.1.6-.3 1-.7 1.4a2 2 0 0 1-1.3.4c-.5 0-1-.2-1.4-.7-.3-.4-.5-1-.5-1.6 0-.8.2-1.4.6-1.8.4-.5.9-.7 1.5-.7Zm2.5-1.5h.8v2.2l.5-.4c.2-.2.5-.3.9-.3.6 0 1 .3 1.3.7l.2 1v3h-.8v-2.9l-.1-.7c-.1-.3-.4-.4-.8-.4-.3 0-.6.1-.8.3-.3.2-.4.7-.4 1.3v2.3h-.8V287Zm7.8 5c0 .2 0 .3.2.5l.6.2.8-.2c.4-.2.6-.6.6-1v-.6l-.3.1a3 3 0 0 1-.5 0l-.4.1-.7.2c-.2.1-.3.4-.3.6v.1Zm1.8-1.6c.2 0 .3 0 .4-.2v-.3c0-.3 0-.4-.2-.6l-.8-.1c-.4 0-.7 0-.9.3l-.2.5h-.7c0-.5.2-1 .6-1.1.3-.3.7-.4 1.2-.4s1 .1 1.3.3c.3.2.5.5.5 1v2.8h.5v.6h-.5c-.3 0-.5 0-.6-.2a1 1 0 0 1-.1-.5 2 2 0 0 1-1.6.8c-.5 0-.8-.1-1.1-.4-.3-.2-.4-.6-.4-1s.1-.7.4-1c.3-.1.6-.3 1-.3l1.2-.2Zm2.4-1.8h.7v.7l.7-.6.8-.2c.6 0 1 .3 1.3.7l.2 1v3h-.8v-2.9l-.1-.7a.8.8 0 0 0-.7-.4h-.5l-.5.4-.3.5v3h-.8v-4.5Zm5.3 2.4c0 .4 0 .8.3 1.2.2.3.5.4 1 .4.3 0 .6-.1.9-.4.2-.3.3-.7.3-1.3 0-.6-.1-1-.4-1.3a1 1 0 0 0-.8-.4c-.4 0-.7.2-1 .5-.2.2-.3.7-.3 1.2v.1Zm1.1-2.4c.4 0 .7 0 .9.2l.5.4V287h.7v6.2h-.7v-.6l-.6.6-.9.2c-.5 0-.9-.2-1.3-.6-.3-.4-.5-1-.5-1.7s.2-1.2.5-1.7.8-.7 1.4-.7v-.1Zm5.6 0h.8v.7l.4-.5.9-.3c.4 0 .6.1.9.3l.3.4.6-.5.8-.2c.6 0 1 .3 1.2.7l.2 1v3h-.8V290c0-.3 0-.5-.2-.6a.9.9 0 0 0-.6-.2 1 1 0 0 0-.8.3c-.2.2-.3.6-.3 1v2.6h-.8v-3.6a1 1 0 0 0-.7-.3c-.3 0-.6.1-.8.3-.2.3-.3.7-.3 1.3v2.3h-.8v-4.5Zm9-.1c.4 0 .7.1 1 .3l.7.5.3.8v1h-3.3c0 .5.2.9.4 1.1.2.3.5.4 1 .4s1-.4 1.1-.9h.8c0 .2 0 .4-.2.6a2 2 0 0 1-.4.5c-.2.2-.5.4-.8.4l-.6.1c-.6 0-1-.2-1.5-.6-.4-.4-.6-1-.6-1.7s.2-1.3.6-1.8a2 2 0 0 1 1.6-.7h-.1Zm1.3 2c0-.3 0-.6-.2-.8-.2-.3-.6-.5-1-.5s-.7.1-1 .4c-.2.2-.3.5-.3 1h2.5v-.1Zm1.8-3.1h.8v1.2h.7v.7h-.7v2.9c0 .2 0 .3.2.3h.5v.6l-.2.1h-.4c-.3 0-.5 0-.7-.3l-.2-.7v-3h-.6v-.6h.6v-1.2Zm2.3-.4h.7v2.2l.5-.4c.3-.2.6-.3 1-.3.6 0 1 .3 1.3.7l.2 1v3h-.8v-2.9l-.1-.7c-.2-.3-.4-.4-.8-.4l-.9.3c-.2.2-.4.7-.4 1.3v2.3h-.7V287Zm6.6 5.7c.5 0 .8-.2 1-.6.2-.4.3-.8.3-1.3 0-.4 0-.7-.2-1-.2-.4-.6-.6-1.1-.6-.5 0-.8.1-1 .5-.2.4-.4.8-.4 1.3s.2.9.4 1.2c.2.3.5.5 1 .5Zm0-4.2c.6 0 1 .2 1.5.6.4.4.6 1 .6 1.7a3 3 0 0 1-.6 1.8c-.3.5-.9.7-1.6.7a2 2 0 0 1-1.5-.6c-.3-.4-.5-1-.5-1.7 0-.8.2-1.4.5-1.8a2 2 0 0 1 1.6-.7Zm3.5 2.5c0 .4 0 .8.3 1.2.2.3.5.4 1 .4.3 0 .6-.1.8-.4.2-.3.4-.7.4-1.3 0-.6-.2-1-.4-1.3a1 1 0 0 0-.9-.4c-.3 0-.7.2-.9.5-.2.2-.3.7-.3 1.2v.1Zm1.1-2.4c.3 0 .6 0 .9.2l.4.4V287h.8v6.2h-.7v-.6c-.2.3-.4.5-.7.6l-.8.2c-.5 0-1-.2-1.3-.6-.4-.4-.5-1-.5-1.7s.1-1.2.5-1.7c.3-.5.8-.7 1.4-.7v-.1Zm8.4 0h.8l-2.3 6c-.2.3-.5.4-1 .4h-.4v-.8l.4.1h.4l.1-.2.2-.4.2-.4-1.7-4.7h.9l1.2 3.7 1.2-3.7Zm3.3 4.1c.5 0 .8-.2 1-.6.2-.4.3-.8.3-1.3 0-.4 0-.7-.2-1-.2-.4-.6-.6-1.1-.6-.5 0-.8.1-1 .5-.2.4-.3.8-.3 1.3s0 .9.3 1.2c.2.3.5.5 1 .5Zm0-4.2c.6 0 1 .2 1.5.6.4.4.6 1 .6 1.7a3 3 0 0 1-.6 1.8c-.3.5-.9.7-1.6.7a2 2 0 0 1-1.5-.6c-.3-.4-.5-1-.5-1.7 0-.8.2-1.4.5-1.8a2 2 0 0 1 1.6-.7Zm3.7.1v3l.1.6c.2.3.4.4.8.4.5 0 .9-.2 1-.7.2-.3.2-.6.2-1v-2.3h.8v4.5h-.7v-.6l-.4.4c-.3.3-.6.4-1 .4-.7 0-1.1-.2-1.4-.7a2 2 0 0 1-.1-.9v-3h.7v-.1Zm6.8 0 .9 3.6.9-3.6h.8l.9 3.6 1-3.6h.7l-1.3 4.5h-.8l-1-3.4-.8 3.4h-.8l-1.3-4.5h.8Zm5.9.1h.8v4.4h-.8v-4.4Zm0-1.7h.8v.8h-.8v-.8Zm1.9 0h.8v6.2h-.8V287Zm1.9 0h.8v6.2h-.8V287Zm4.5.4h.8v1.2h.7v.7h-.7v2.9l.1.3h.6v.6l-.3.1h-.3c-.4 0-.6 0-.7-.3l-.2-.7v-3h-.6v-.6h.6v-1.2Zm2.8 4.6c0 .2 0 .3.3.5l.5.2.8-.2c.4-.2.6-.6.6-1v-.6l-.3.1a3 3 0 0 1-.5 0l-.4.1-.6.2c-.3.1-.4.4-.4.6v.1Zm1.9-1.6c.1 0 .2 0 .3-.2v-.3c0-.3 0-.4-.2-.6l-.8-.1c-.4 0-.7 0-.9.3l-.1.5h-.7c0-.5.1-1 .5-1.1.3-.3.7-.4 1.2-.4s1 .1 1.3.3c.3.2.5.5.5 1v2.8h.5v.6h-.5c-.3 0-.5 0-.6-.2a1 1 0 0 1-.1-.5 2 2 0 0 1-1.6.8c-.5 0-.8-.1-1-.4-.3-.2-.5-.6-.5-1s.2-.7.4-1c.3-.1.6-.3 1-.3l1.3-.2Zm2.3-3.4h.7v3.6l2-2h1l-1.8 1.7 1.9 2.8h-1l-1.4-2.2-.7.6v1.6h-.7V287Zm6.2 1.5c.3 0 .7.1 1 .3.3.1.5.3.6.5.2.3.3.5.3.8l.1 1H567c0 .5.1.9.3 1.1.2.3.5.4 1 .4.6 0 1-.4 1.2-.9h.7l-.1.6c-.2.5-.7.9-1.2 1h-.7c-.6 0-1-.2-1.4-.6-.4-.4-.6-1-.6-1.7s.2-1.3.6-1.8a2 2 0 0 1 1.5-.7h-.1Zm1.2 2c0-.3 0-.6-.2-.8-.2-.3-.5-.5-1-.5-.4 0-.7.1-.9.4-.2.2-.4.5-.4 1h2.5v-.1Zm4.3-3.1h.8v1.2h.7v.7h-.7v2.9l.1.3h.6v.6l-.3.1h-.3c-.4 0-.6 0-.7-.3-.2-.1-.2-.4-.2-.7v-3h-.6v-.6h.6v-1.2Zm4 5.3c.5 0 .9-.2 1-.6.2-.4.3-.8.3-1.3 0-.4 0-.7-.2-1-.2-.4-.5-.6-1-.6s-.9.1-1 .5a2 2 0 0 0-.4 1.3c0 .5.1.9.3 1.2.2.3.6.5 1 .5Zm0-4.2a2 2 0 0 1 1.5.6c.4.4.6 1 .6 1.7a3 3 0 0 1-.5 1.8c-.4.5-1 .7-1.7.7-.6 0-1-.2-1.4-.6-.4-.4-.6-1-.6-1.7 0-.8.2-1.4.6-1.8a2 2 0 0 1 1.5-.7Zm5.4.2h.8v4.4h-.8v-4.4Zm0-1.7h.8v.8h-.8v-.8Zm1.9 1.6h.8v.7l.5-.5c.2-.2.5-.3.8-.3.4 0 .7.1.9.3l.3.4.6-.5.8-.2c.6 0 1 .3 1.2.7l.2 1v3h-.8V290c0-.3 0-.5-.2-.6a.9.9 0 0 0-.6-.2 1 1 0 0 0-.7.3c-.2.2-.3.6-.3 1v2.6h-.8v-2.9l-.1-.7c-.1-.2-.4-.3-.7-.3-.3 0-.5.1-.8.3-.2.3-.3.7-.3 1.3v2.3h-.8v-4.5Zm9.1 4c.4 0 .7-.1 1-.4.1-.3.3-.7.3-1.3 0-.4 0-.7-.2-1a1 1 0 0 0-1-.7c-.6 0-1 .3-1.2.8-.2.6-.2 1.4 0 2 .2.4.6.6 1.1.6Zm-2-4h.8v.7l.5-.5.9-.3c.5 0 1 .2 1.3.6.4.4.5 1 .5 1.7 0 1-.2 1.7-.7 2.1-.4.3-.7.4-1.2.4-.3 0-.6 0-.8-.2a2 2 0 0 1-.5-.5v2.3h-.7v-6.2l-.1-.1Zm4.9-1.6h.8v6.2h-.8V287Zm3.8 1.5 1 .3.6.5c.2.3.3.5.3.8l.1 1h-3.3c0 .5.1.9.3 1.1.2.3.5.4 1 .4.6 0 1-.4 1.2-.9h.7c0 .2 0 .4-.2.6-.2.5-.7.9-1.2 1h-.6c-.6 0-1-.2-1.4-.6-.4-.4-.6-1-.6-1.7s.2-1.3.6-1.8a2 2 0 0 1 1.5-.7Zm1.2 2c0-.3 0-.6-.2-.8-.2-.3-.5-.5-1-.5-.4 0-.7.1-1 .4-.1.2-.3.5-.3 1h2.5v-.1Zm1.7-1.9h.8v.7l.5-.5c.2-.2.5-.3.8-.3.4 0 .7.1.9.3l.3.4.6-.5.8-.2c.6 0 1 .3 1.2.7l.2 1v3h-.8V290c0-.3 0-.5-.2-.6a.9.9 0 0 0-.6-.2 1 1 0 0 0-.7.3c-.2.2-.4.6-.4 1v2.6h-.7v-2.9l-.1-.7c-.1-.2-.4-.3-.7-.3-.3 0-.5.1-.8.3-.2.3-.3.7-.3 1.3v2.3h-.8v-4.5Zm9.1-.1 1 .3.6.5c.2.3.3.5.3.8v1h-3.2c0 .5.1.9.3 1.1.2.3.5.4 1 .4.6 0 1-.4 1.2-.9h.7c0 .2 0 .4-.2.6-.2.5-.7.9-1.2 1h-.6c-.6 0-1-.2-1.5-.6-.3-.4-.5-1-.5-1.7s.2-1.3.6-1.8a2 2 0 0 1 1.5-.7Zm1.2 2c0-.3 0-.6-.2-.8-.2-.3-.6-.5-1-.5s-.7.1-1 .4c-.2.2-.3.5-.3 1h2.5v-.1Zm1.7-1.9h.7v.7l.7-.6.8-.2c.6 0 1 .3 1.3.7l.2 1v3h-.8v-2.9l-.1-.7a.8.8 0 0 0-.7-.4h-.5l-.5.4-.3.5v3h-.8v-4.5Zm5-1.2h.7v1.2h.8v.7h-.8v2.9c0 .2 0 .3.2.3h.6v.6l-.3.1h-.3c-.4 0-.6 0-.7-.3-.2-.1-.2-.4-.2-.7v-3h-.6v-.6h.6v-1.2Zm4.8 0h.7v1.2h.7v.7h-.7v2.9c0 .2 0 .3.2.3h.5v.6l-.2.1h-.3c-.4 0-.6 0-.8-.3l-.1-.7v-3h-.7v-.6h.7v-1.2Zm2.2-.4h.8v2.2l.4-.4c.3-.2.6-.3 1-.3.6 0 1 .3 1.3.7l.2 1v3h-.8v-2.9l-.1-.7c-.2-.3-.4-.4-.8-.4l-.9.3c-.2.2-.3.7-.3 1.3v2.3h-.8V287Zm6.7 1.5a2 2 0 0 1 1.6.8l.3.8v1h-3.2c0 .5 0 .9.3 1.1.2.3.5.4 1 .4.6 0 1-.4 1.2-.9h.7c0 .2 0 .4-.2.6a2 2 0 0 1-.4.5c-.2.2-.5.4-.8.4l-.6.1c-.6 0-1-.2-1.5-.6-.4-.4-.6-1-.6-1.7s.2-1.3.6-1.8a2 2 0 0 1 1.6-.7Zm1.2 2c0-.3 0-.6-.2-.8-.2-.3-.6-.5-1-.5s-.7.1-1 .4c-.2.2-.3.5-.3 1h2.5v-.1ZM395.5 301c0 .5 0 .9.3 1.2.2.4.5.5 1 .5.3 0 .6-.1.8-.4.3-.3.4-.8.4-1.3 0-.6-.1-1-.4-1.3a1 1 0 0 0-.8-.4c-.4 0-.7.1-1 .4-.2.3-.3.7-.3 1.3Zm1.1-2.4.9.2.4.5V297h.8v6.2h-.7v-.6l-.6.6-.9.2c-.5 0-1-.2-1.3-.7-.3-.4-.5-1-.5-1.6 0-.7.1-1.3.5-1.8.3-.4.8-.7 1.4-.7Zm5.1 0c.3 0 .6 0 .9.2l.7.6.3.8v1h-3.3c0 .5.2.8.4 1.1.2.3.5.4 1 .4s1-.4 1.1-.9h.8l-.2.6a2 2 0 0 1-.4.5l-.8.4h-.7c-.5 0-1-.1-1.4-.5-.4-.4-.6-1-.6-1.8 0-.7.2-1.3.6-1.7a2 2 0 0 1 1.6-.7Zm1.2 2c0-.3 0-.6-.2-.8-.2-.4-.6-.5-1-.5s-.7 0-1 .3c-.2.3-.3.6-.3 1h2.5Zm3.4-2c.5 0 1 .1 1.3.3.3.3.5.7.5 1.3h-.7a1 1 0 0 0-.3-.7c-.2-.2-.4-.2-.8-.2-.5 0-.8.2-1 .7l-.2 1c0 .5 0 1 .3 1.2.2.3.5.5.9.5.3 0 .5-.1.7-.3l.4-.8h.7c0 .6-.3 1-.6 1.3a2 2 0 0 1-1.3.4c-.6 0-1-.2-1.4-.6-.3-.4-.5-1-.5-1.6 0-.8.2-1.4.6-1.9.3-.4.8-.6 1.4-.6Zm2.6.1h.8v4.5h-.8v-4.5Zm0-1.7h.8v.9h-.8v-.9Zm2.4 4.8c0 .3 0 .4.2.6.1.2.5.3 1 .3l.7-.1c.2-.2.3-.3.3-.6 0-.2 0-.3-.2-.4a3 3 0 0 0-.7-.3l-.6-.1a3 3 0 0 1-.9-.3 1 1 0 0 1-.4-.9c0-.4.1-.8.4-1 .3-.3.7-.4 1.3-.4.6 0 1.1.2 1.4.6.2.2.3.5.3.8h-.7c0-.2 0-.3-.2-.5s-.5-.3-.9-.3a1 1 0 0 0-.6.2c-.2.1-.3.3-.3.4 0 .2.1.4.3.5l.5.2.5.1c.6.1 1 .3 1.1.4.3.2.5.5.5 1 0 .3-.2.7-.5 1-.3.2-.8.4-1.4.4-.7 0-1.1-.2-1.4-.5-.3-.3-.4-.6-.5-1.1h.8Zm3.8-3.1h.8v4.5h-.8v-4.5Zm0-1.7h.8v.9h-.8v-.9Zm3.7 5.7c.5 0 .9-.2 1-.5.3-.4.3-.8.3-1.3 0-.4 0-.8-.2-1-.2-.5-.5-.7-1-.7s-.9.2-1 .6c-.3.3-.4.7-.4 1.2s.1 1 .3 1.2c.2.4.6.5 1 .5Zm0-4.1a2 2 0 0 1 1.5.6c.4.3.6 1 .6 1.7a3 3 0 0 1-.5 1.8 2 2 0 0 1-1.6.7c-.7 0-1.2-.2-1.5-.6-.4-.5-.6-1-.6-1.7 0-.8.2-1.4.6-1.9a2 2 0 0 1 1.6-.6h-.1Zm3 .1h.8v.6l.6-.5.8-.2c.7 0 1.1.2 1.3.7.2.2.2.6.2 1v3h-.8v-3.6a1 1 0 0 0-.8-.4h-.5l-.5.4-.2.5-.1.7v2.3h-.8v-4.5Zm5.2 3.1.3.6c.2.2.5.3 1 .3l.7-.1c.2-.2.3-.3.3-.6 0-.2 0-.3-.2-.4a3 3 0 0 0-.7-.3l-.6-.1a3 3 0 0 1-.8-.3 1 1 0 0 1-.5-.9c0-.4.1-.8.4-1a2 2 0 0 1 1.3-.4c.7 0 1.2.2 1.5.6l.2.8h-.7c0-.2 0-.3-.2-.5-.1-.2-.4-.3-.9-.3a1 1 0 0 0-.6.2c-.2.1-.2.3-.2.4 0 .2 0 .4.2.5l.5.2.5.1c.6.1 1 .3 1.1.4.3.2.5.5.5 1 0 .3-.2.7-.5 1-.3.2-.7.4-1.4.4a2 2 0 0 1-1.4-.5c-.3-.3-.4-.6-.4-1.1h.7-.1Zm5.5.5h.8v1h-.8v-1ZM431 299c0-.6.2-1.1.6-1.5.3-.4.8-.6 1.4-.6.5 0 1 .2 1.3.5.3.3.5.7.5 1.2 0 .3 0 .6-.2.8l-.7.8c-.3.2-.5.5-.5.6l-.2.8h-.7l.1-1c.1-.2.3-.5.7-.8l.3-.3.2-.3.2-.6c0-.3 0-.5-.2-.7-.2-.2-.5-.3-.9-.3s-.7.2-1 .5a2 2 0 0 0-.1.9h-.8Zm7.7-2 1.1 5 1.4-5h1l1.3 5 1.2-5h1l-1.7 6.2h-.9l-1.4-5.1-1.5 5.1h-.8l-1.7-6.2h1Zm7.6 0h.7v2.3l.5-.5 1-.2c.6 0 1 .2 1.3.7l.2 1v3h-.8v-3l-.1-.7c-.2-.2-.4-.3-.8-.3-.3 0-.6 0-.9.3-.2.2-.4.6-.4 1.2v2.4h-.7V297Zm5.4 5c0 .2 0 .4.2.5.2.2.4.2.6.2.2 0 .5 0 .7-.2.5-.2.7-.5.7-1v-.6l-.4.2h-.4l-.5.1-.6.2c-.2.1-.3.3-.3.6Zm1.8-1.5c.2 0 .3-.1.3-.2l.1-.3c0-.3 0-.5-.3-.6l-.8-.2c-.4 0-.6.1-.8.4-.1 0-.2.2-.2.5h-.7c0-.6.2-1 .5-1.2.4-.2.8-.3 1.3-.3s1 0 1.2.3c.4.2.5.5.5 1v2.7l.3.1h.2v.5l-.2.1h-.3c-.2 0-.4 0-.6-.3v-.4a2 2 0 0 1-1.6.8c-.5 0-.9-.2-1.1-.4-.3-.3-.4-.6-.4-1s.1-.7.4-1c.2-.2.6-.3 1-.4l1.2-.1Zm2.5-3.1h.8v1.3h.7v.6h-.7v3c0 .1 0 .2.2.3h.5v.6h-.6c-.3 0-.6 0-.7-.2l-.2-.7v-3h-.6v-.6h.6v-1.3Zm4.7 1.3h.7v4.5h-.7v-4.5Zm0-1.7h.7v.9h-.7v-.9Zm2.3 4.8.2.6c.2.2.5.3 1 .3l.8-.1c.2-.2.3-.3.3-.6 0-.2-.1-.3-.3-.4a3 3 0 0 0-.6-.3l-.6-.1a3 3 0 0 1-.9-.3 1 1 0 0 1-.5-.9c0-.4.2-.8.5-1 .3-.3.7-.4 1.2-.4.7 0 1.2.2 1.5.6.2.2.3.5.3.8h-.7l-.2-.5c-.2-.2-.5-.3-1-.3a1 1 0 0 0-.6.2l-.2.4c0 .2.1.4.3.5l.5.2.5.1 1 .4c.4.2.5.5.5 1 0 .3-.1.7-.4 1-.3.2-.8.4-1.4.4-.7 0-1.2-.2-1.4-.5-.3-.3-.5-.6-.5-1.1h.7Zm9.1-3.1h.9l-2.4 6c-.2.2-.5.4-.9.4h-.5v-.8l.5.1h.3l.2-.2.1-.4.2-.5-1.7-4.6h.9l1.2 3.7 1.2-3.7Zm3.3 4c.5 0 .8-.2 1-.5.2-.4.3-.8.3-1.3 0-.4 0-.8-.2-1a1 1 0 0 0-1-.7c-.6 0-.9.2-1.1.6-.2.3-.3.7-.3 1.2s0 1 .3 1.2c.2.4.5.5 1 .5Zm0-4.1a2 2 0 0 1 1.5.6c.4.3.6 1 .6 1.7a3 3 0 0 1-.5 1.8c-.4.4-1 .7-1.7.7-.6 0-1-.2-1.5-.6-.3-.5-.5-1-.5-1.7 0-.8.2-1.4.6-1.9a2 2 0 0 1 1.5-.6Zm3.8.1v3.6c.2.2.5.4.8.4.6 0 1-.3 1.1-.7l.2-1v-2.3h.7v4.5h-.7v-.6l-.4.4c-.2.2-.6.3-1 .3-.7 0-1-.2-1.3-.6a2 2 0 0 1-.2-1v-3h.8Zm4 0h.7v.8c.1-.2.2-.4.5-.6.2-.2.5-.3.8-.3h.2v.8h-.2a1 1 0 0 0-1 .4l-.2.8v2.6h-.8v-4.5Zm5.8 3.3c0 .2.1.4.3.5.2.2.3.2.6.2.2 0 .5 0 .7-.2.5-.2.7-.5.7-1v-.6l-.4.2h-.4l-.5.1-.6.2c-.2.1-.3.3-.3.6h-.1Zm1.9-1.5c.2 0 .3-.1.3-.2v-.3c0-.3 0-.5-.2-.6l-.8-.2c-.4 0-.7.1-.8.4-.1 0-.2.2-.2.5h-.7c0-.6.2-1 .5-1.2l1.2-.3c.6 0 1 0 1.3.3.4.2.5.5.5 1v2.7l.3.1h.2v.5l-.2.1h-.3c-.3 0-.4 0-.6-.3v-.4a2 2 0 0 1-1.6.8c-.5 0-.9-.2-1.1-.4-.3-.3-.4-.6-.4-1s0-.7.4-1c.2-.2.6-.3 1-.4l1.2-.1Zm4.1-1.9c.5 0 1 .1 1.2.3.4.3.6.7.6 1.3h-.7c0-.3-.2-.5-.3-.7-.2-.2-.4-.2-.8-.2-.5 0-.8.2-1 .7-.2.3-.2.6-.2 1 0 .5 0 1 .3 1.2.1.3.4.5.9.5.3 0 .5-.1.7-.3l.4-.8h.7c0 .6-.3 1-.6 1.3a2 2 0 0 1-1.3.4c-.6 0-1-.2-1.4-.6-.4-.4-.5-1-.5-1.6 0-.8.2-1.4.5-1.9.4-.4 1-.6 1.5-.6Zm2.7-1.2h.8v1.3h.7v.6h-.7v3c0 .1 0 .2.2.3h.5v.6h-.6c-.3 0-.6 0-.7-.2l-.2-.7v-3h-.6v-.6h.6v-1.3Zm2.3 1.3h.7v4.5h-.7v-4.5Zm0-1.7h.7v.9h-.7v-.9Zm3.7 5.7c.5 0 .8-.2 1-.5.2-.4.3-.8.3-1.3 0-.4 0-.8-.2-1-.2-.5-.6-.7-1.1-.7-.5 0-.8.2-1 .6-.2.3-.3.7-.3 1.2s0 1 .3 1.2c.2.4.5.5 1 .5Zm0-4.1c.6 0 1 .2 1.5.6.4.3.6 1 .6 1.7a3 3 0 0 1-.5 1.8c-.4.4-1 .7-1.7.7a2 2 0 0 1-1.5-.6c-.3-.5-.5-1-.5-1.7 0-.8.2-1.4.6-1.9a2 2 0 0 1 1.5-.6Zm3 .1h.7v.6l.7-.5.8-.2c.6 0 1 .2 1.3.7l.2 1v3h-.8v-3l-.1-.6c-.2-.3-.4-.4-.8-.4h-.4l-.5.4c-.2.2-.3.3-.3.5v3h-.8v-4.5Zm9.1 4c.3 0 .6-.1.9-.4.2-.3.3-.8.3-1.4l-.1-.9c-.2-.5-.6-.7-1.1-.7-.5 0-.9.2-1 .7-.2.6-.2 1.4 0 2 .1.5.5.7 1 .7Zm-2-4h.8v.6l.5-.5.9-.2c.5 0 .9.2 1.3.6.3.4.5 1 .5 1.7 0 1-.3 1.6-.8 2-.3.3-.7.5-1.1.5-.4 0-.6-.1-.9-.3a2 2 0 0 1-.4-.4v2.3h-.8v-6.3Zm4.9-1.7h.8v6.2h-.8V297Zm2.5 5c0 .2 0 .4.2.5.2.2.4.2.6.2.3 0 .5 0 .8-.2.4-.2.6-.5.6-1v-.6l-.4.2h-.4l-.5.1-.6.2c-.2.1-.3.3-.3.6Zm1.8-1.5.4-.2v-.3c0-.3 0-.5-.3-.6l-.8-.2a1 1 0 0 0-.8.4l-.2.5h-.7c0-.6.2-1 .6-1.2.3-.2.7-.3 1.2-.3s1 0 1.3.3c.3.2.5.5.5 1v2.7l.2.1h.3v.5l-.3.1h-.3c-.2 0-.4 0-.5-.3a1 1 0 0 1-.2-.4 2 2 0 0 1-1.6.8c-.4 0-.8-.2-1-.4-.3-.3-.4-.6-.4-1s.1-.7.4-1c.2-.2.6-.3 1-.4l1.2-.1Zm2.4-1.8h.7v.6l.7-.5.8-.2c.6 0 1 .2 1.3.7l.2 1v3h-.8v-3l-.1-.6c-.2-.3-.4-.4-.8-.4h-.4l-.5.4c-.2.2-.3.3-.3.5v3h-.8v-4.5Zm6.3 3.6h.8v1h-.8v-1Zm-1.4-3.3c0-.6.2-1.1.5-1.5.3-.4.8-.6 1.4-.6.6 0 1 .2 1.3.5.4.3.5.7.5 1.2l-.1.8-.8.8-.5.6-.1.8h-.8c0-.4 0-.7.2-1 0-.2.3-.5.6-.8l.3-.3.3-.3.1-.6c0-.3 0-.5-.2-.7-.2-.2-.4-.3-.8-.3-.5 0-.8.2-1 .5a2 2 0 0 0-.2.9h-.7Z"/><path fill="#FFF" fill-rule="nonzero" d="M247.1 63a5.8 5.8 0 0 1-1.8-4 7 7 0 0 1 2.3-4.9c1.3-1.4 3-2.3 5-2.3 1.3 0 2.6.6 3.8 1.9 1.3 1.3 1.9 2.6 1.9 3.9 0 1.7-.7 3.3-2.3 5-1.6 1.5-3.2 2.3-5 2.2-1.3 0-2.6-.5-3.9-1.8Zm4.1-.6c1-.1 2-.7 3-1.7s1.5-2 1.6-3a3 3 0 0 0-1-2.4 3 3 0 0 0-2.5-1 5 5 0 0 0-3 1.7 5 5 0 0 0-1.5 2.9 3 3 0 0 0 .9 2.5 3 3 0 0 0 2.5 1Zm5 9.6c-.5-.6-.9-1.2-1-1.7V69l-.8.8-1.6-1.6 8.8-8.8 1.6 1.7-3 3.1h1.3c.5.1 1 .4 1.5.9.8.8 1.2 1.8 1 3a5.3 5.3 0 0 1-1.6 3 6 6 0 0 1-3.2 1.8c-1.1.2-2.1-.1-3-1v.1Zm4.3-2.5 1-1.3c.3-.8.1-1.5-.5-2.1-.6-.6-1.3-.8-2-.4-.5.1-1 .5-1.4 1-.6.5-1 1-1 1.7-.2.6 0 1.2.5 1.7.5.4 1 .6 1.6.5.6-.2 1.2-.5 1.8-1v-.1ZM271 74c.1.8-.1 1.6-.8 2.5l-1.7-1.7c.2-.2.3-.5.3-.7 0-.4-.2-.8-.6-1.3-.4-.4-.7-.6-1-.6-.2 0-.5 0-.6.2-.2.1-.3.4-.2.6 0 .3.5 1 1.3 2.3.5.8.8 1.5.8 2.2 0 .7-.2 1.2-.7 1.7-.7.7-1.4 1-2.3.9-.9 0-1.8-.6-2.8-1.6-1-1-1.6-2-1.6-3 0-.9.3-1.7.9-2.3l1.7 1.7c-.3.4-.4.6-.4.9 0 .4.2 1 .8 1.5.3.3.7.5 1 .6.2.1.5 0 .7-.1.2-.2.2-.4.2-.7l-1.3-2.3a5 5 0 0 1-.8-2.2c0-.6.2-1.1.7-1.6a3 3 0 0 1 2.2-.9c1 0 2 .6 2.7 1.4.8.8 1.3 1.6 1.5 2.4v.1Zm3.5 12.1a3 3 0 0 1-1.7.6c-1.2 0-2.3-.4-3.3-1.4a4.7 4.7 0 0 1-1.4-3c-.1-1.2.4-2.3 1.6-3.5.9-1 2.1-1.7 3.5-1.8 1.2 0 2.2.4 3.1 1.3.5.6 1 1.2 1.2 1.8.2.6.2 1.3 0 2a3 3 0 0 1-.8 1.9c-.2.3-.6.8-1.2 1.3l-4.4-4.4c-.7.6-1 1.3-.8 2 0 .4.3.7.6 1 .3.4.7.6 1.1.6l.8-.1 1.7 1.7Zm.4-3.7c.4-.4.6-1 .6-1.4 0-.5-.2-.9-.6-1.3-.4-.3-.8-.5-1.3-.5-.4 0-1 .2-1.4.6l2.7 2.6Zm7.1 5.2c-.6-.7-1.3-1-2-.7-.4 0-.8.4-1.3 1l-3.1 3-1.8-1.7 6.5-6.5 1.7 1.6-1.2 1.2a5 5 0 0 1 1.6-.2c.7 0 1.3.4 1.7.9l.2.1-1.8 1.8-.4-.5h-.1Zm2.5-.8 1.9 2-3.5 6 6.2-3.3 1.8 1.8-8.8 4.2-1.8-1.8 4.2-8.9Zm8.4 17.6a3 3 0 0 1-1.8.6c-1.2 0-2.3-.4-3.3-1.4a4.7 4.7 0 0 1-1.4-3c0-1.2.5-2.3 1.7-3.5 1-1.2 2.2-1.7 3.4-1.8a4 4 0 0 1 3.1 1.4c1.2.8 1.6 2.3 1.2 3.7a3 3 0 0 1-.8 1.9c-.2.3-.6.8-1.2 1.3l-4.4-4.4c-.7.7-1 1.3-.8 2 0 .4.3.7.6 1 .4.4.7.6 1.2.6l.7-.1 1.8 1.7Zm.3-3.7c.4-.4.6-1 .6-1.4 0-.5-.2-.9-.6-1.2-.4-.4-.8-.6-1.3-.6-.4 0-.9.2-1.4.6l2.7 2.6Zm-31 177.5a5.4 5.4 0 0 1-3.9 1.8 7 7 0 0 1-5-2.3c-1.6-1.6-2.3-3.2-2.2-5 0-1.3.6-2.6 1.8-3.8 1.3-1.3 2.6-2 4-1.9a7 7 0 0 1 4.9 2.3c1.5 1.6 2.3 3.2 2.3 5 0 1.3-.6 2.6-1.9 3.9Zm-.6-4.1c-.1-1-.7-2-1.7-3a5 5 0 0 0-2.9-1.6 3 3 0 0 0-2.5 1 3 3 0 0 0-1 2.5c.1 1 .7 2 1.7 2.9 1 1 2 1.5 3 1.6a3 3 0 0 0 2.5-.9 3 3 0 0 0 .9-2.5Zm4.2-9.8c-.7.6-1 1.3-.7 2 0 .4.4.8 1 1.4l3 3-1.7 1.8-6.5-6.5 1.6-1.6 1.2 1a5 5 0 0 1-.2-1.5c0-.7.4-1.3.9-1.7l.1-.1 1.8 1.7a6 6 0 0 0-.5.5Zm1.6-4.8 6.5 6.5-1.7 1.7-6.5-6.5 1.7-1.7Zm-2.3-2.4 1.5 1.6-1.7 1.7-1.5-1.6 1.7-1.7Zm14.1-.2c.3.4.5 1 .6 1.7 0 1.2-.4 2.3-1.4 3.3-.8.8-1.8 1.3-3 1.4-1.2.1-2.3-.4-3.5-1.6-1-.9-1.7-2.1-1.8-3.5a4 4 0 0 1 1.4-3.1c.5-.5 1-1 1.7-1.2.6-.2 1.3-.2 2 0a3 3 0 0 1 1.9.8c.3.2.8.6 1.3 1.2l-4.4 4.4c.7.7 1.3 1 2 .8a2 2 0 0 0 1-.6c.4-.3.6-.7.6-1.1l-.1-.8 1.7-1.7Zm-3.7-.4a2 2 0 0 0-1.4-.6c-.5 0-.9.2-1.2.6-.4.4-.6.8-.6 1.3 0 .4.2 1 .6 1.4l2.6-2.7Zm4.7-7.3c-.6.6-.8 1.3-.5 2l.8 1.1 3.5 3.5-1.7 1.7-6.4-6.5 1.6-1.6 1 1a4 4 0 0 1-.2-1.4 3 3 0 0 1 1-1.7c.7-.7 1.4-1 2.2-1.1.7-.1 1.5.3 2.3 1l4.4 4.5-1.7 1.7-4-4-.9-.6c-.5-.2-1 0-1.4.4Zm11.3-3.2 1.3 1.2-.8.8c-.7.8-1.4 1.3-2 1.2-.4 0-.8-.2-1.2-.6l-4-4-1 1-1.1-1.3.9-.9-1.8-1.8 1.7-1.7 1.8 1.8 1-1 1.2 1.2-1 1 3.4 3.5.6.4.7-.5.3-.4v.1Zm-243.2 3.5-3.8-3.8 8.8-8.8 3.8 3.8c.5.5.9 1 1.1 1.5.5.8.6 1.7.4 2.6a4 4 0 0 1-.8 2c-.4.7-.8 1.2-1.3 1.7-1 1-2.2 1.9-3.6 2.3-1.8.4-3.3 0-4.6-1.3Zm7.9-5.2c.2-.8-.1-1.6-1-2.4l-1.7-1.7-5.7 5.7 1.7 1.7c.9.9 1.9 1 3.1.6.7-.3 1.3-.8 2-1.4.8-1 1.4-1.8 1.6-2.5Zm4.4 13.7a3 3 0 0 1-1.7.6c-1.2 0-2.3-.4-3.3-1.4a4.7 4.7 0 0 1-1.4-3c-.1-1.2.4-2.4 1.6-3.6 1.2-1 2.3-1.7 3.5-1.7 1.2 0 2.2.4 3.1 1.3.5.6 1 1.2 1.2 1.8.2.6.2 1.3 0 2a3 3 0 0 1-.8 1.9c-.2.3-.6.8-1.2 1.3l-4.4-4.4c-.7.6-1 1.3-.8 2 0 .3.3.7.6 1 .3.4.7.6 1.1.6l.8-.1 1.7 1.7Zm.4-3.7c.4-.5.6-1 .6-1.4 0-.5-.2-.9-.6-1.3-.4-.4-.8-.5-1.3-.5-.4 0-1 .2-1.4.6l2.7 2.6Zm8.7 8.3-1.7-1.8c.2-.2.4-.5.4-.9s0-.8-.5-1.2c-.6-.6-1.2-.7-2-.4a5.3 5.3 0 0 0-2.4 2.4c-.3.7-.2 1.4.4 2 .4.3.8.5 1.1.5.4 0 .8-.3 1.2-.6l1.7 1.8a4 4 0 0 1-2 .9c-1.3.2-2.4-.2-3.5-1.3-1-1-1.5-2.1-1.4-3.2a6 6 0 0 1 1.7-3.2 5 5 0 0 1 3.4-1.7 4 4 0 0 1 3.2 1.3c.8.8 1.3 1.6 1.5 2.5a4 4 0 0 1-1 2.9h-.1Zm5.3.6-6.5 6.5-1.7-1.8 6.5-6.5 1.7 1.8Zm2.3-2.4-1.5 1.6-1.8-1.7 1.6-1.6 1.7 1.7Zm7.5 7.6-8.8 8.8-1.6-1.6.9-1c-.6.2-1.2.2-1.7 0-.5 0-1-.4-1.4-.8-.8-.8-1-1.7-1-2.9a5 5 0 0 1 1.6-3.1c.9-1 2-1.7 3.4-1.9 1.1 0 2.1.3 3 1.1.4.4.6.9.8 1.3v1.5l3-3 1.8 1.6Zm-10.1 1c-.6.6-1 1.2-1.1 1.8-.1.6 0 1.1.5 1.6s1 .7 1.7.6c.6-.1 1.1-.5 1.7-1 .8-.8 1.2-1.6 1.1-2.3 0-.5-.2-.9-.5-1.2-.5-.5-1-.7-1.7-.5-.6.1-1.2.5-1.7 1Zm10.3 13a3 3 0 0 1-1.7.6c-1.2 0-2.3-.4-3.3-1.4a4.7 4.7 0 0 1-1.4-3c-.1-1.2.4-2.4 1.6-3.6 1.2-1 2.3-1.7 3.5-1.7 1.2 0 2.2.4 3.1 1.3.5.6 1 1.2 1.2 1.8.2.6.2 1.3 0 2a3 3 0 0 1-.8 1.9c-.2.3-.6.8-1.2 1.3l-4.5-4.4c-.6.6-.8 1.3-.7 2 0 .3.3.7.6 1 .3.4.7.6 1.1.6l.8-.1 1.7 1.7Zm.4-3.7c.4-.5.6-1 .6-1.4 0-.5-.2-.9-.6-1.3-.4-.4-.8-.5-1.3-.5-.4 0-1 .2-1.4.6l2.7 2.6ZM66.2 84.3l-3.3 3.3 1.2 2.4-1.9 1.9-5.6-12 2-2 12 5.7-2 2-2.4-1.3Zm-2-1L59.6 81l2.3 4.5 2.2-2.2h.1ZM73 72.8l-1.8 1.7-.9-.4c-.4 0-.9.1-1.3.5-.5.6-.7 1.3-.3 2 .2.5.5 1 1 1.4.5.5 1 .8 1.4 1 .7.3 1.4.2 2-.3.3-.4.5-.8.4-1.2 0-.4-.2-.8-.5-1.1l1.7-1.8a4 4 0 0 1 1 2 4 4 0 0 1-1.3 3.5c-1 1-2.1 1.5-3.2 1.4a5.3 5.3 0 0 1-3.2-1.7c-1-.9-1.6-2-1.8-3.4a4 4 0 0 1 1.3-3.2c.9-.8 1.7-1.3 2.6-1.4.9-.2 1.8.2 2.8 1h.1Zm7-1.2 1.3 1.3-.8.8c-.7.9-1.4 1.3-2 1.3-.4 0-.8-.3-1.2-.7l-4-4-1 1-1.1-1.3.9-.9-1.8-1.8 1.6-1.7 1.9 1.9 1-1.1 1.2 1.2-1 1 3.4 3.5.6.4.7-.5.3-.4Zm200.1 97.9c.1 50.8-34.5 95.2-83.8 107.4-34 8.4-70 .4-97.2-21.8-36.3-29.6-50-79-34-123a110 110 0 0 1 67-66.9 111 111 0 0 1 148 104.3Z"/><path fill="#F0F4F7" d="M388.7 77.8h287.6V20.3H388.7z"/><path fill="#3B3D4B" fill-rule="nonzero" d="M124.8 165.6c-4.1 0-7.3-1.1-9.5-3.4-2.9-2.7-4.4-6.7-4.4-12 0-5.2 1.5-9.2 4.4-11.9a13 13 0 0 1 9.5-3.4c4.2 0 7.3 1.2 9.5 3.4 3 2.7 4.4 6.7 4.4 12 0 5.2-1.4 9.2-4.4 12-2.2 2.2-5.3 3.3-9.5 3.3Zm5.8-7.8c1.4-1.7 2-4.3 2-7.5 0-3.3-.6-5.8-2-7.6a7 7 0 0 0-5.8-2.6 7 7 0 0 0-5.7 2.6 11.7 11.7 0 0 0-2.1 7.6c0 3.2.7 5.8 2.1 7.5a7 7 0 0 0 5.7 2.7 7 7 0 0 0 5.8-2.7Zm25.5 7.8c-4.1 0-7.3-1.1-9.5-3.4-2.9-2.7-4.4-6.7-4.4-12 0-5.2 1.5-9.2 4.4-11.9a13 13 0 0 1 9.5-3.4c4.2 0 7.3 1.2 9.5 3.4 3 2.7 4.4 6.7 4.4 12 0 5.2-1.4 9.2-4.4 12-2.2 2.2-5.3 3.3-9.5 3.3Zm5.8-7.8c1.4-1.7 2-4.3 2-7.5 0-3.3-.6-5.8-2-7.6a7 7 0 0 0-5.8-2.6 7 7 0 0 0-5.7 2.6 11.7 11.7 0 0 0-2.1 7.6c0 3.2.7 5.8 2.1 7.5a7 7 0 0 0 5.7 2.7 7 7 0 0 0 5.8-2.7Zm25.2 7h-12.5v-29h12.5c1.8 0 3.3.3 4.5.7a10 10 0 0 1 5 3.6c1 1.5 1.6 3 2 4.7.4 1.7.5 3.3.5 4.8 0 3.9-.7 7.1-2.3 9.8-2 3.5-5.7 5.6-9.7 5.4Zm4.5-21.6c-1-1.5-2.8-2.3-5.5-2.3h-5.6v18.9h5.6c2.8 0 4.8-1.4 6-4.2.7-1.8 1-3.7.9-5.6 0-3-.5-5.2-1.4-6.8Zm29 15.7H210l-2 6h-6.4l10.4-29h6.8l10.3 29h-6.6l-1.9-6Zm-1.7-5-3.6-11.4-3.7 11.4h7.3ZM123.2 184h6v23.8h14.4v5.2h-20.4v-29Zm42 10.3c1.8 2.2 2.7 5 2.7 8 .1 3-.9 5.7-2.7 8-1.8 2.3-4.5 3.4-8.2 3.4-3.7 0-6.5-1-8.3-3.3-1.8-2.2-2.7-5-2.7-8 0-3.2 1-5.9 2.7-8.1 1.8-2.3 4.6-3.4 8.3-3.4 3.7 0 6.4 1.1 8.2 3.4Zm-8.3 1.3c-1.6 0-2.9.6-3.7 1.8a8 8 0 0 0-1.4 5c0 2 .5 3.7 1.4 4.9a4.5 4.5 0 0 0 3.7 1.7c1.7 0 3-.5 3.8-1.7a8 8 0 0 0 1.3-5 8 8 0 0 0-1.3-5 4.4 4.4 0 0 0-3.8-1.7Zm32.9-1.3c1.8 2.2 2.7 5 2.7 8 0 3.2-1 5.9-2.7 8-1.8 2.3-4.6 3.4-8.3 3.4-3.7 0-6.4-1-8.2-3.3-1.8-2.2-2.7-5-2.7-8 0-3.2.9-5.9 2.7-8.1 1.8-2.3 4.5-3.4 8.2-3.4 3.7 0 6.5 1.1 8.3 3.4Zm-8.3 1.3c-1.6 0-2.9.6-3.8 1.8a8 8 0 0 0-1.3 5c0 2 .4 3.7 1.3 4.9 1 1.2 2.3 1.8 3.8 1.7 1.7 0 3-.5 3.8-1.7a8 8 0 0 0 1.3-5 8 8 0 0 0-1.3-5 4.4 4.4 0 0 0-3.8-1.7Zm32.9-1.7c1.7 1.8 2.6 4.5 2.6 8.1 0 3.8-.8 6.7-2.5 8.6-1.7 2-4 3-6.6 3-1.7 0-3.1-.4-4.2-1.3a8.2 8.2 0 0 1-1.8-2v11.1h-5.6v-29.8h5.4v3.1a7 7 0 0 1 6.4-3.6c2.4 0 4.6 1 6.3 2.8Zm-3.2 8.4a8 8 0 0 0-1.1-4.4 4 4 0 0 0-3.7-2c-2 0-3.4 1-4.2 3a11 11 0 0 0-.5 3.9c0 2.5.6 4.2 2 5.2.7.6 1.7.9 2.7.9a4 4 0 0 0 3.6-1.8 8.4 8.4 0 0 0 1.2-4.8ZM399 40.3c-1.2 0-2.1-.4-2.7-1-.9-.8-1.3-2-1.3-3.4 0-1.5.4-2.7 1.3-3.4.6-.7 1.5-1 2.7-1 1.2 0 2 .3 2.7 1 .8.7 1.2 1.9 1.2 3.4s-.4 2.6-1.2 3.4c-.6.6-1.5 1-2.7 1Zm1.6-2.3c.4-.5.6-1.2.6-2.1 0-1-.2-1.7-.6-2.2a2 2 0 0 0-1.6-.7 2 2 0 0 0-1.7.7c-.4.5-.6 1.2-.6 2.2 0 .9.2 1.6.6 2.1.4.5 1 .8 1.7.8a2 2 0 0 0 1.6-.8Zm6.8 2.2c-.5 0-.9-.1-1.2-.3-.2-.1-.4-.3-.6-.7v.8h-1.5v-8.3h1.6v3l.6-.7a2 2 0 0 1 1.1-.2c.8 0 1.5.3 2 .8.4.6.6 1.4.6 2.3a4 4 0 0 1-.7 2.3c-.4.7-1 1-1.9 1Zm1-3.2-.2-1c-.3-.6-.6-.8-1.2-.8s-1 .2-1.2.8a3 3 0 0 0-.2 1c0 .6.1 1 .4 1.3.2.4.5.6 1 .6.4 0 .8-.2 1-.5.2-.4.3-.8.3-1.4h.1Zm7-2.8c.4.3.7.8.8 1.6h-1.6c0-.2 0-.4-.2-.5-.2-.2-.5-.4-.9-.4l-.7.2c-.2.1-.2.2-.2.4s0 .3.2.4l1.7.4c.5.1 1 .3 1.4.7.3.3.5.7.5 1.2 0 .6-.3 1-.7 1.5a4 4 0 0 1-2.1.5c-1 0-1.7-.2-2.1-.6a2 2 0 0 1-.7-1.5h1.6l.2.6c.2.2.6.3 1.1.3l.8-.1.2-.5c0-.2 0-.3-.2-.4a9 9 0 0 0-1.6-.5c-.7-.1-1.2-.4-1.5-.6-.3-.3-.4-.6-.4-1.1 0-.6.2-1 .6-1.5.5-.4 1-.6 1.9-.6.8 0 1.4.2 1.9.5Zm7.4 4c0 .4-.2.8-.6 1.1-.5.6-1.2 1-2.2 1-.8 0-1.5-.3-2-.8-.6-.5-1-1.3-1-2.5 0-1 .3-1.9.9-2.4.5-.6 1.2-.9 2-.9.6 0 1 .1 1.4.3.4.2.8.5 1 1 .3.3.4.7.5 1.2v1.2h-4.1c0 .6.2 1 .6 1.3l.7.2c.4 0 .6 0 .9-.3l.2-.4h1.7Zm-1.6-1.9c0-.4-.2-.7-.4-1l-.8-.2a1 1 0 0 0-.9.3c-.2.2-.3.5-.4 1h2.5v-.1Zm5.8-.9c-.6 0-1 .2-1.3.6l-.2 1v3H424v-6h1.5v1l.7-.8 1.2-.3h.2v1.6a4 4 0 0 0-.5 0l-.1-.1Zm.8-1.5h1.8l1.3 4.5 1.3-4.5h1.7l-2.2 6.1H430l-2.2-6.1Zm12.2 4.3c0 .4-.2.8-.5 1.1-.5.6-1.3 1-2.2 1-.8 0-1.5-.3-2-.8-.7-.5-1-1.3-1-2.5 0-1 .3-1.9.8-2.4.6-.6 1.3-.9 2.1-.9.5 0 1 .1 1.4.3.4.2.7.5 1 1l.5 1.2v1.2H436c0 .6.2 1 .6 1.3l.8.2c.3 0 .6 0 .8-.3l.3-.4h1.6-.1Zm-1.5-1.9c0-.4-.2-.7-.4-1l-.9-.2a1 1 0 0 0-.8.3c-.2.2-.4.5-.4 1h2.5v-.1Zm-43 14.7 1.2 5.1 1.4-5h.9l1.4 5 1.1-5h1l-1.7 6.2h-.8l-1.5-5.2-1.4 5.2h-.9l-1.6-6.2h.9V51Zm7.6 0h.8v2.4l.5-.5c.2-.2.5-.2.9-.2.6 0 1 .2 1.3.6l.2 1v3h-.8v-2.9l-.1-.7c-.1-.2-.4-.4-.8-.4a1 1 0 0 0-.8.4c-.3.2-.4.6-.4 1.2v2.4h-.8V51Zm5.4 5c0 .3 0 .5.2.6l.6.2c.3 0 .5 0 .8-.2.4-.2.6-.5.6-1V55l-.3.1a3 3 0 0 1-.5.1h-.4l-.6.2c-.3.2-.4.4-.4.7V56Zm1.8-1.5c.2 0 .3 0 .4-.2V54c0-.2 0-.4-.2-.5l-.8-.2c-.4 0-.7.1-.9.3l-.1.5h-.8c0-.5.2-.9.6-1.1.3-.2.7-.3 1.2-.3s1 0 1.3.3c.3.2.5.5.5.9v2.8h.5v.6a2 2 0 0 1-.3 0h-.2c-.3 0-.5 0-.6-.2l-.1-.4a2 2 0 0 1-.7.5 2 2 0 0 1-1 .2c-.4 0-.7-.1-1-.4-.3-.2-.4-.5-.4-1 0-.3.1-.6.4-.9l1-.4 1.2-.2Zm2.6-3h.7v1.3h.8v.6h-.8v3l.2.2h.6v.7h-.6c-.4 0-.6 0-.7-.2-.2-.2-.2-.4-.2-.7v-3h-.6v-.6h.6v-1.3Zm4.6 1.3h.8v4.5h-.8v-4.5Zm0-1.7h.8v.8h-.8v-.8Zm2.4 4.8c0 .2 0 .4.2.5.2.3.5.4 1 .4.2 0 .5 0 .7-.2.2 0 .3-.3.3-.5s0-.4-.2-.5a3 3 0 0 0-.7-.2l-.6-.1a3 3 0 0 1-.8-.4 1 1 0 0 1-.5-.8c0-.4.1-.8.4-1 .3-.3.8-.5 1.3-.5.7 0 1.1.2 1.4.6l.3.9h-.7c0-.2 0-.4-.2-.5-.1-.2-.4-.3-.9-.3a1 1 0 0 0-.6.2c-.2 0-.3.2-.3.4s.1.3.3.5l.5.2h.5c.6.2 1 .3 1.1.5.3.2.5.5.5.9s-.2.7-.5 1a2 2 0 0 1-1.4.5 2 2 0 0 1-1.4-.5c-.3-.3-.4-.7-.4-1.1h.7Zm6.4-4.4h.8v1.3h.7v.6h-.7v3l.1.2h.6v.7h-.6c-.4 0-.6 0-.7-.2l-.2-.7v-3h-.6v-.6h.6v-1.3Zm2.2-.5h.8v2.4l.5-.5c.2-.2.5-.2.9-.2.6 0 1 .2 1.3.6l.2 1v3h-.8v-2.9l-.1-.7c-.1-.2-.4-.4-.8-.4a1 1 0 0 0-.8.4c-.3.2-.4.6-.4 1.2v2.4h-.8V51Zm6.7 1.7a2 2 0 0 1 1.6.8c.2.2.3.5.3.8l.1 1h-3.3c0 .4.1.8.3 1 .2.3.5.5 1 .5.6 0 1.1-.4 1.2-1h.7c0 .2 0 .4-.2.6-.2.5-.7.9-1.2 1h-.6c-.6 0-1-.2-1.4-.6-.4-.4-.6-1-.6-1.7s.2-1.3.6-1.8a2 2 0 0 1 1.5-.6Zm1.2 2c0-.3 0-.6-.2-.8-.2-.4-.6-.6-1-.6s-.7.2-1 .4c-.2.3-.3.6-.3 1h2.5Zm5.9-2.1c.5 0 .9.2 1.2.4.3.3.5.7.6 1.3h-.8a1 1 0 0 0-.3-.7c-.1-.2-.4-.3-.7-.3-.5 0-.9.3-1 .7-.2.3-.3.7-.3 1.2 0 .4.1.8.3 1.1.2.3.5.5 1 .5.2 0 .5-.1.7-.3.1-.2.3-.5.3-.8h.8c-.1.6-.3 1-.7 1.3a2 2 0 0 1-1.2.4 2 2 0 0 1-1.5-.6c-.3-.5-.5-1-.5-1.7s.2-1.4.6-1.8c.4-.4.9-.7 1.5-.7Zm3.3.2v3l.1.5c.1.3.4.4.8.4.5 0 .8-.2 1-.7l.2-1v-2.2h.7v4.5h-.7v-.7c0 .2-.2.3-.3.4-.3.3-.7.4-1 .4-.7 0-1.2-.2-1.4-.6a2 2 0 0 1-.2-1v-3h.8Zm4.1 0h.7v.7l.4-.5c.2-.2.6-.3.9-.3h.1v.8h-.2a1 1 0 0 0-.9.3l-.3.9v2.6h-.7v-4.5Zm2.8 0h.7v.7l.5-.5c.2-.2.5-.3.8-.3h.2v.8h-.2a1 1 0 0 0-1 .3l-.2.9v2.6h-.8v-4.5Zm4.8-.1a2 2 0 0 1 1.6.8l.3.8v1H456c0 .4.2.8.4 1 .2.3.5.5.9.5.6 0 1.1-.4 1.2-1h.8l-.2.6c-.2.5-.7.9-1.2 1h-.7a2 2 0 0 1-1.4-.6c-.4-.4-.6-1-.6-1.7s.2-1.3.6-1.8a2 2 0 0 1 1.6-.6h-.1Zm1.2 2a2 2 0 0 0-.3-.8c-.2-.4-.5-.6-1-.6-.3 0-.6.2-.9.4-.2.3-.3.6-.3 1h2.5Zm1.7-1.9h.7v.6l.7-.6.8-.1c.6 0 1 .2 1.3.6l.1 1v3h-.7v-2.9l-.1-.6c-.2-.3-.4-.5-.8-.5l-.4.1c-.2 0-.4.2-.6.4l-.2.4v3.1h-.8v-4.5Zm4.9-1.3h.8v1.3h.7v.6h-.7v3l.1.2h.6v.7h-.6c-.3 0-.6 0-.7-.2l-.2-.7v-3h-.6v-.6h.6v-1.3Zm5.1 4.4c0 .2 0 .4.2.5.2.3.5.4 1 .4.3 0 .5 0 .7-.2.2 0 .4-.3.4-.5s-.1-.4-.3-.5a3 3 0 0 0-.7-.2l-.6-.1a3 3 0 0 1-.8-.4 1 1 0 0 1-.5-.8c0-.4.2-.8.5-1 .3-.3.7-.5 1.2-.5.7 0 1.2.2 1.5.6l.3.9h-.8l-.1-.5c-.2-.2-.5-.3-1-.3a1 1 0 0 0-.6.2l-.2.4c0 .2 0 .3.3.5l.5.2h.5c.5.2.9.3 1 .5.4.2.5.5.5.9s-.1.7-.5 1c-.3.3-.7.5-1.3.5-.7 0-1.2-.2-1.5-.5-.3-.3-.4-.7-.4-1.1h.7Zm3.8-3.1h.8v4.5h-.7v-4.5h-.1Zm0-1.7h.8v.8h-.7v-.8h-.1Zm2.1.4h.8v1.3h.7v.6h-.7v3s0 .2.2.2h.5v.7h-.6c-.3 0-.5 0-.7-.2l-.2-.7v-3h-.6v-.6h.6v-1.3Zm3 1.3v3l.1.5c.2.3.4.4.8.4.5 0 .9-.2 1-.7.2-.2.2-.6.2-1v-2.2h.8v4.5h-.7v-.7l-.4.4c-.3.3-.6.4-1 .4-.7 0-1.1-.2-1.3-.6a2 2 0 0 1-.2-1v-3h.7Zm4.7 3.2c0 .3 0 .5.2.6l.6.2c.2 0 .5 0 .7-.2.5-.2.7-.5.7-1V55l-.4.1a3 3 0 0 1-.4.1h-.5l-.6.2a1 1 0 0 0-.3.7V56Zm1.8-1.5c.2 0 .3 0 .3-.2V54c0-.2 0-.4-.2-.5l-.8-.2c-.4 0-.6.1-.8.3l-.2.5h-.7c0-.5.2-.9.5-1.1l1.2-.3c.6 0 1 0 1.3.3.4.2.5.5.5.9v2.8h.5v.6h-.5c-.3 0-.4 0-.6-.2v-.4a2 2 0 0 1-1.6.8c-.5 0-.9-.2-1.1-.5-.3-.2-.4-.5-.4-1 0-.3.1-.6.4-.9.2-.2.6-.3 1-.4l1.2-.2Zm2.5-3h.8v1.3h.7v.6h-.7v3s0 .2.2.2h.5v.7h-.6c-.3 0-.6 0-.7-.2l-.2-.7v-3h-.6v-.6h.6v-1.3Zm2.3 1.3h.7v4.5h-.7v-4.5Zm0-1.7h.7v.8h-.7v-.8Zm3.6 5.7c.6 0 1-.2 1.1-.6.2-.4.3-.8.3-1.3 0-.4 0-.7-.2-1-.2-.4-.6-.6-1.1-.6-.5 0-.8.2-1 .5-.2.4-.3.8-.3 1.3s0 .9.3 1.2c.2.3.5.5 1 .5h-.1Zm.1-4.2c.6 0 1 .2 1.5.6.4.4.6 1 .6 1.7a3 3 0 0 1-.6 1.8c-.3.5-.9.7-1.6.7a2 2 0 0 1-1.5-.6c-.3-.4-.5-1-.5-1.7s.2-1.3.6-1.8a2 2 0 0 1 1.5-.7Zm2.9.2h.8v.6l.7-.6.8-.1c.6 0 1 .2 1.3.6l.2 1v3h-.8v-2.9l-.1-.6c-.2-.3-.4-.5-.8-.5l-.4.1c-.2 0-.4.2-.6.4l-.2.4v3.1h-.8v-4.5h-.1Zm6.4 3.6h.8v.9h-.8v-.9ZM502 53c0-.6.1-1 .5-1.4.3-.4.8-.6 1.4-.6.6 0 1 .2 1.3.5.4.3.5.7.5 1.2 0 .3 0 .5-.2.7 0 .2-.3.5-.7.8l-.5.7-.1.8h-.8c0-.4 0-.7.2-1 0-.2.3-.5.6-.8l.3-.3.3-.3.1-.6c0-.3 0-.5-.2-.7-.2-.2-.4-.3-.8-.3-.5 0-.8.1-1 .5a2 2 0 0 0-.2.8h-.7Zm7.6-2 1.1 5.1 1.4-5h1l1.4 5 1.1-5h1l-1.7 6.2h-.9l-1.4-5.2-1.4 5.2h-1l-1.5-6.2h.9V51Zm7.6 0h.8v2.4c.1-.3.3-.4.5-.5.2-.2.5-.2.9-.2.6 0 1 .2 1.3.6l.2 1v3h-.8v-2.9l-.1-.7c-.2-.2-.4-.4-.8-.4a1 1 0 0 0-.8.4c-.3.2-.4.6-.4 1.2v2.4h-.8V51Zm5.4 5c0 .3 0 .5.2.6l.6.2c.3 0 .5 0 .8-.2.4-.2.6-.5.6-1V55l-.4.1a3 3 0 0 1-.4.1h-.4l-.7.2a1 1 0 0 0-.3.7V56Zm1.8-1.5c.2 0 .3 0 .4-.2V54c0-.2 0-.4-.3-.5l-.7-.2c-.4 0-.7.1-.9.3l-.2.5h-.7c0-.5.2-.9.6-1.1.3-.2.7-.3 1.2-.3s1 0 1.3.3c.3.2.5.5.5.9v2.8h.5v.6a2 2 0 0 1-.3 0h-.3c-.2 0-.4 0-.5-.2a1 1 0 0 1-.2-.4 2 2 0 0 1-.6.5 2 2 0 0 1-1 .2c-.4 0-.7-.1-1-.4-.3-.2-.4-.5-.4-1 0-.3.1-.6.4-.9l1-.4 1.2-.2Zm2.6-3h.7v1.3h.7v.6h-.7v3s0 .2.2.2h.5v.7h-.5c-.4 0-.6 0-.8-.2l-.1-.7v-3h-.7v-.6h.7v-1.3Zm4.6 1.3h.8v4.5h-.8v-4.5Zm0-1.7h.8v.8h-.8v-.8Zm2.4 4.8.1.5c.2.3.6.4 1 .4.3 0 .6 0 .8-.2.2 0 .3-.3.3-.5s0-.4-.3-.5a3 3 0 0 0-.6-.2l-.6-.1a3 3 0 0 1-.9-.4 1 1 0 0 1-.4-.8c0-.4.1-.8.4-1 .3-.3.7-.5 1.3-.5.6 0 1.1.2 1.4.6l.3.9h-.7c0-.2 0-.4-.2-.5-.2-.2-.5-.3-.9-.3a1 1 0 0 0-.6.2c-.2 0-.3.2-.3.4s.1.3.3.5l.5.2h.5c.6.2 1 .3 1.1.5.3.2.5.5.5.9s-.2.7-.5 1a2 2 0 0 1-1.4.5c-.7 0-1.1-.2-1.4-.5-.3-.3-.4-.7-.5-1.1h.8Zm6.4-4.4h.7v1.3h.8v.6h-.8v3s0 .2.2.2h.6v.7h-.6c-.4 0-.6 0-.7-.2-.2-.2-.2-.4-.2-.7v-3h-.6v-.6h.6v-1.3Zm2.2-.5h.8v2.4c.1-.3.3-.4.5-.5.2-.2.5-.2.9-.2.6 0 1 .2 1.3.6l.2 1v3h-.8v-2.9l-.1-.7c-.2-.2-.4-.4-.8-.4a1 1 0 0 0-.8.4c-.3.2-.4.6-.4 1.2v2.4h-.8V51Zm6.7 1.7a2 2 0 0 1 1.6.8c.2.2.3.5.3.8v1H548c0 .4 0 .8.3 1 .2.3.5.5 1 .5.6 0 1.1-.4 1.2-1h.7c0 .2 0 .4-.2.6-.2.5-.7.9-1.2 1h-.6c-.6 0-1-.2-1.5-.6-.3-.4-.5-1-.5-1.7s.2-1.3.5-1.8a2 2 0 0 1 1.6-.6Zm1.2 2c0-.3 0-.6-.2-.8-.2-.4-.6-.6-1-.6s-.7.2-1 .4c-.2.3-.3.6-.3 1h2.5Zm4.1-1.9h.7v.7l.5-.5c.2-.2.5-.3.8-.3h.2v.8h-.2a1 1 0 0 0-1 .3l-.2.9v2.6h-.8v-4.5Zm4.8-.1c.3 0 .6 0 .9.2.3.1.5.3.7.6l.3.8v1H558c0 .4.2.8.4 1 .2.3.5.5.9.5.6 0 1.1-.4 1.2-1h.8l-.2.6c-.2.5-.7.9-1.2 1h-.7a2 2 0 0 1-1.4-.6c-.4-.4-.6-1-.6-1.7s.2-1.3.6-1.8a2 2 0 0 1 1.6-.6Zm1.2 2a2 2 0 0 0-.3-.8c-.2-.4-.5-.6-1-.6-.3 0-.6.2-.9.4-.2.3-.3.6-.3 1h2.5Zm2.3 1.3c0 .3 0 .5.2.6l.6.2c.2 0 .5 0 .7-.2.5-.2.7-.5.7-1V55l-.4.1a3 3 0 0 1-.4.1h-.5l-.6.2a1 1 0 0 0-.3.7V56Zm1.8-1.5c.2 0 .3 0 .3-.2V54c0-.2 0-.4-.2-.5l-.8-.2c-.4 0-.7.1-.8.3l-.2.5h-.7c0-.5.2-.9.5-1.1l1.2-.3c.6 0 1 0 1.3.3.4.2.5.5.5.9v2.8h.5v.6h-.5c-.3 0-.4 0-.6-.2l-.1-.4a2 2 0 0 1-.7.5 2 2 0 0 1-1 .2c-.3 0-.7-.1-1-.4-.2-.2-.3-.5-.3-1 0-.3 0-.6.4-.9.2-.2.6-.3 1-.4l1.2-.2Zm2.8 1.4.2.5c.2.3.5.4 1 .4.3 0 .5 0 .7-.2.3 0 .4-.3.4-.5s-.1-.4-.3-.5a3 3 0 0 0-.6-.2l-.6-.1a3 3 0 0 1-.9-.4 1 1 0 0 1-.5-.8c0-.4.2-.8.5-1 .3-.3.7-.5 1.2-.5.7 0 1.2.2 1.5.6l.3.9h-.8l-.1-.5c-.2-.2-.5-.3-1-.3a1 1 0 0 0-.6.2l-.2.4c0 .2 0 .3.3.5l.5.2h.5c.5.2.9.3 1 .5.4.2.5.5.5.9s-.1.7-.4 1a2 2 0 0 1-1.4.5c-.7 0-1.2-.2-1.5-.5-.2-.3-.4-.7-.4-1.1h.7Zm5.7.9c.5 0 .8-.2 1-.6.2-.4.3-.8.3-1.3 0-.4 0-.7-.2-1-.2-.4-.6-.6-1.1-.6-.5 0-.8.2-1 .5-.2.4-.4.8-.4 1.3s.2.9.4 1.2c.2.3.5.5 1 .5Zm0-4.2c.6 0 1 .2 1.5.6.4.4.6 1 .6 1.7a3 3 0 0 1-.6 1.8c-.3.5-.9.7-1.6.7a2 2 0 0 1-1.5-.6c-.3-.4-.5-1-.5-1.7s.2-1.3.5-1.8a2 2 0 0 1 1.6-.7Zm3 .2h.7v.6l.7-.6.8-.1c.6 0 1 .2 1.3.6l.2 1v3h-.8v-2.9l-.1-.6c-.2-.3-.4-.5-.8-.5l-.4.1c-.2 0-.4.2-.6.4l-.2.4v3.1h-.8v-4.5Zm10 0h.8l-2.3 6c-.2.2-.5.3-1 .3h-.4v-.7h.8l.1-.2.4-.8-1.7-4.6h.9l1.2 3.6 1.2-3.6Zm3.3 4c.5 0 .8-.2 1-.6.2-.4.3-.8.3-1.3 0-.4 0-.7-.2-1-.2-.4-.6-.6-1.1-.6-.5 0-.8.2-1 .5-.2.4-.3.8-.3 1.3s0 .9.3 1.2c.2.3.5.5 1 .5Zm0-4.2c.6 0 1 .2 1.5.6.4.4.6 1 .6 1.7a3 3 0 0 1-.6 1.8c-.3.5-.9.7-1.6.7a2 2 0 0 1-1.5-.6c-.3-.4-.5-1-.5-1.7s.2-1.3.5-1.8a2 2 0 0 1 1.6-.7Zm3.7.2v3l.1.5c.2.3.4.4.8.4.5 0 .9-.2 1-.7.2-.2.2-.6.2-1v-2.2h.8v4.5h-.7v-.7l-.4.4c-.3.3-.6.4-1 .4-.7 0-1.1-.2-1.4-.6a2 2 0 0 1-.1-1v-3h.7Zm6.8 0 .9 3.5.9-3.5h.8l.9 3.5 1-3.5h.7l-1.3 4.5h-.8l-1-3.5-.8 3.5h-.8l-1.3-4.5h.8Zm6.5 3.2c0 .3 0 .5.2.6l.6.2c.3 0 .5 0 .8-.2.4-.2.6-.5.6-1V55l-.4.1a3 3 0 0 1-.4.1h-.5l-.6.2a1 1 0 0 0-.3.7V56Zm1.8-1.5c.2 0 .3 0 .4-.2V54c0-.2 0-.4-.3-.5l-.8-.2c-.3 0-.6.1-.8.3l-.2.5h-.7c0-.5.2-.9.6-1.1.3-.2.7-.3 1.2-.3s1 0 1.3.3c.3.2.5.5.5.9v2.8h.5v.6a2 2 0 0 1-.3 0h-.3c-.2 0-.4 0-.5-.2a1 1 0 0 1-.2-.4 2 2 0 0 1-1.6.8c-.4 0-.7-.2-1-.5-.3-.2-.4-.5-.4-1 0-.3.1-.6.4-.9.2-.2.6-.3 1-.4l1.2-.2Zm2.4-1.7h.7v.6l.7-.6.8-.1c.6 0 1 .2 1.3.6l.2 1v3h-.8v-2.9l-.1-.6c-.2-.3-.4-.5-.8-.5l-.4.1c-.2 0-.4.2-.5.4-.2.1-.3.3-.3.4v3.1h-.8v-4.5Zm4.9-1.3h.8v1.3h.7v.6h-.7v3s0 .2.2.2h.5v.7h-.5c-.4 0-.6 0-.8-.2l-.2-.7v-3h-.6v-.6h.6v-1.3Zm4.8 0h.8v1.3h.7v.6h-.7v3s0 .2.2.2h.5v.7h-.6c-.3 0-.6 0-.7-.2l-.2-.7v-3h-.6v-.6h.6v-1.3Zm4.1 5.3c.5 0 .8-.2 1-.6.2-.4.3-.8.3-1.3 0-.4 0-.7-.2-1-.2-.4-.6-.6-1.1-.6-.5 0-.8.2-1 .5-.2.4-.4.8-.4 1.3s.2.9.4 1.2c.2.3.5.5 1 .5Zm0-4.2c.6 0 1 .2 1.5.6.4.4.6 1 .6 1.7a3 3 0 0 1-.6 1.8c-.3.5-.9.7-1.6.7a2 2 0 0 1-1.5-.6c-.3-.4-.5-1-.5-1.7s.2-1.3.5-1.8a2 2 0 0 1 1.6-.7Zm7.1 0c.5 0 1 .2 1.3.4.3.3.5.7.5 1.3h-.7c0-.3-.2-.5-.3-.7-.2-.2-.4-.3-.8-.3-.5 0-.8.3-1 .7-.2.3-.2.7-.2 1.2 0 .4 0 .8.3 1.1.1.3.4.5.9.5.3 0 .5-.1.7-.3l.4-.8h.7c0 .6-.3 1-.6 1.3a2 2 0 0 1-1.3.4c-.6 0-1-.2-1.4-.6-.4-.5-.5-1-.5-1.7s.2-1.4.5-1.8c.4-.4 1-.7 1.5-.7Zm2.6-1.6h.7v2.4l.5-.5c.3-.2.6-.2 1-.2.6 0 1 .2 1.3.6l.2 1v3h-.8v-2.9l-.1-.7c-.2-.2-.4-.4-.8-.4-.3 0-.6.1-.9.4-.2.2-.4.6-.4 1.2v2.4h-.7V51Zm5.4 5c0 .3 0 .5.2.6l.6.2c.2 0 .5 0 .7-.2.5-.2.7-.5.7-1V55l-.4.1a3 3 0 0 1-.4.1h-.5l-.6.2a1 1 0 0 0-.3.7V56Zm1.8-1.5c.2 0 .3 0 .3-.2l.1-.3c0-.2 0-.4-.3-.5l-.8-.2c-.4 0-.6.1-.8.3l-.2.5h-.7c0-.5.2-.9.5-1.1l1.2-.3c.6 0 1 0 1.3.3.4.2.5.5.5.9v2.8h.5v.6h-.5c-.2 0-.4 0-.6-.2v-.4a2 2 0 0 1-.8.5 2 2 0 0 1-1 .2c-.3 0-.7-.1-1-.4-.2-.2-.3-.5-.3-1 0-.3.1-.6.4-.9.2-.2.6-.3 1-.4l1.2-.2Zm2.4-1.7h.7v.6l.7-.6.8-.1c.6 0 1 .2 1.3.6l.2 1v3h-.8v-2.9l-.1-.6c-.2-.3-.4-.5-.8-.5l-.4.1c-.2 0-.4.2-.6.4l-.2.4v3.1h-.8v-4.5Zm6.4-.1c.3 0 .6 0 .9.2l.4.5v-.6h.7v4.1c0 .6 0 1-.2 1.4-.3.6-1 .9-1.8.9-.5 0-.9-.1-1.2-.3-.4-.3-.5-.6-.6-1h.8c0 .1 0 .3.2.4.2.2.4.3.8.3.6 0 1-.2 1.2-.7l.1-1.2-.5.5-.9.1c-.5 0-1-.1-1.3-.5-.3-.3-.5-1-.5-1.7 0-.8.2-1.4.5-1.8.4-.4.8-.6 1.4-.6Zm1.3 2.3c0-.6 0-1-.3-1.2-.2-.3-.5-.4-.9-.4a1 1 0 0 0-1 .7 3 3 0 0 0-.2 1c0 .6 0 1 .3 1.2.2.3.4.4.8.4.5 0 1-.2 1.1-.7.2-.3.2-.6.2-1Zm3.7-2.3a2 2 0 0 1 1.7.8l.3.8v1H654c0 .4.2.8.4 1 .2.3.5.5.9.5.6 0 1.1-.4 1.2-1h.8l-.2.6c-.2.5-.7.9-1.2 1h-.7a2 2 0 0 1-1.4-.6c-.4-.4-.6-1-.6-1.7s.2-1.3.6-1.8a2 2 0 0 1 1.5-.6h-.1Zm1.3 2a2 2 0 0 0-.3-.8c-.2-.4-.5-.6-1-.6-.3 0-.6.2-.9.4-.2.3-.3.6-.3 1h2.5Zm3.2 1.7h.8v.9h-.8v-.9Zm-1.4-3.4c0-.6.1-1 .5-1.4.3-.4.8-.6 1.4-.6.5 0 1 .2 1.3.5.4.3.5.7.5 1.2 0 .3 0 .5-.2.7 0 .2-.3.5-.7.8l-.5.7-.1.8h-.8l.1-1 .7-.8.3-.3.3-.3.1-.6c0-.3 0-.5-.2-.7-.2-.2-.5-.3-.8-.3-.5 0-.8.1-1 .5a2 2 0 0 0-.2.8h-.7ZM395 61.1h.7v2.3l.5-.4c.3-.2.6-.3 1-.3.6 0 1 .3 1.3.7l.2 1v3h-.8v-2.9l-.1-.7c-.2-.3-.4-.4-.8-.4l-.9.3c-.2.2-.4.7-.4 1.3v2.3h-.7v-6.2Zm6.6 5.8c.5 0 .8-.2 1-.6.2-.4.3-.8.3-1.3 0-.4 0-.7-.2-1-.2-.4-.6-.6-1.1-.6-.5 0-.8.1-1 .5-.2.4-.3.8-.3 1.3s0 .9.3 1.2c.2.3.5.5 1 .5Zm0-4.2c.6 0 1 .2 1.5.6.4.4.6 1 .6 1.7a3 3 0 0 1-.5 1.8c-.4.5-1 .7-1.7.7a2 2 0 0 1-1.5-.6c-.3-.4-.5-1-.5-1.7 0-.8.2-1.4.6-1.8a2 2 0 0 1 1.5-.7Zm3.4.1.8 3.6.9-3.6h.8l1 3.6.8-3.6h.8l-1.3 4.5h-.8l-1-3.4-.8 3.4h-.8l-1.3-4.5h.9Zm8.1-1.7h.8v2.3c.3-.4.8-.7 1.3-.7.6 0 1 .2 1.4.6.3.4.5 1 .5 1.7a3 3 0 0 1-.5 1.8c-.3.5-.8.7-1.4.7-.4 0-.7 0-.9-.3a2 2 0 0 1-.5-.4v.5h-.7v-6.2Zm2 5.7a1 1 0 0 0 1-.5l.2-1.3c0-.4 0-.8-.3-1.1a1 1 0 0 0-.9-.5c-.3 0-.6.1-.9.4-.2.2-.4.7-.4 1.2l.2 1c.2.6.6.8 1.1.8Zm3.5-.7c0 .3 0 .4.2.6l.6.2.8-.2c.4-.2.6-.6.6-1v-.6l-.4.1a3 3 0 0 1-.4 0l-.4.1-.7.2c-.2.1-.3.4-.3.6Zm1.8-1.5c.2 0 .3 0 .4-.2v-.3c0-.3 0-.4-.3-.6l-.7-.1c-.4 0-.7 0-.9.3l-.2.5h-.7c0-.5.2-1 .6-1.1.3-.3.7-.4 1.2-.4s1 .1 1.3.3c.3.2.5.5.5 1v2.8h.5v.6a2 2 0 0 1-.3 0h-.3c-.2 0-.4 0-.5-.2a1 1 0 0 1-.2-.4 2 2 0 0 1-1.6.8 2 2 0 0 1-1-.5c-.3-.2-.4-.6-.4-1s.1-.7.4-1c.2-.1.6-.3 1-.3l1.2-.2Zm2.9.5c0 .5 0 1 .3 1.3.2.3.5.4 1 .4.3 0 .6-.1.8-.4.3-.3.4-.7.4-1.3 0-.6-.1-1-.4-1.3a1 1 0 0 0-.8-.4c-.4 0-.7.2-1 .5-.2.2-.3.7-.3 1.2Zm1.1-2.3c.4 0 .7 0 .9.2l.5.4v-2.3h.7v6.2h-.7v-.6l-.6.6-.9.2c-.5 0-.9-.2-1.3-.6-.3-.4-.5-1-.5-1.7s.2-1.2.5-1.7.8-.7 1.4-.7Zm6.1 2.3c0 .5 0 1 .3 1.3.2.3.5.4 1 .4.3 0 .6-.1.8-.4.3-.3.4-.7.4-1.3 0-.6-.1-1-.4-1.3a1 1 0 0 0-.8-.4c-.4 0-.7.2-1 .5-.2.2-.3.7-.3 1.2Zm1.1-2.3c.4 0 .7 0 .9.2l.4.4v-2.3h.8v6.2h-.7v-.6l-.6.6-.9.2c-.5 0-.9-.2-1.3-.6-.3-.4-.5-1-.5-1.7s.1-1.2.5-1.7c.3-.5.8-.7 1.4-.7Zm5 4.1c.5 0 .8-.2 1-.6.2-.4.3-.8.3-1.3 0-.4 0-.7-.2-1-.2-.4-.6-.6-1.1-.6-.5 0-.8.1-1 .5-.2.4-.3.8-.3 1.3s0 .9.3 1.2c.2.3.5.5 1 .5Zm0-4.2c.6 0 1 .2 1.5.6.4.4.6 1 .6 1.7a3 3 0 0 1-.5 1.8c-.4.5-1 .7-1.7.7a2 2 0 0 1-1.5-.6c-.3-.4-.5-1-.5-1.7 0-.8.2-1.4.6-1.8a2 2 0 0 1 1.5-.7Zm8.2.1h.8l-2.3 6c-.2.3-.5.4-1 .4h-.4v-.8l.5.1h.3l.1-.2.2-.4.2-.4-1.7-4.7h.9l1.2 3.7 1.2-3.7Zm3.2 4.1c.6 0 1-.2 1.1-.6.2-.4.3-.8.3-1.3 0-.4 0-.7-.2-1-.2-.4-.6-.6-1.1-.6-.5 0-.8.1-1 .5-.2.4-.3.8-.3 1.3s0 .9.3 1.2c.2.3.5.5 1 .5h-.1Zm.1-4.2c.6 0 1 .2 1.5.6.4.4.6 1 .6 1.7a3 3 0 0 1-.5 1.8c-.4.5-1 .7-1.7.7a2 2 0 0 1-1.5-.6c-.3-.4-.5-1-.5-1.7 0-.8.2-1.4.6-1.8a2 2 0 0 1 1.5-.7Zm3.8.1v3.6c.2.3.5.4.8.4.5 0 1-.2 1.1-.7l.2-1v-2.3h.7v4.5h-.7v-.6c0 .2-.2.3-.4.4-.3.3-.6.4-1 .4-.7 0-1.1-.2-1.3-.7a2 2 0 0 1-.2-.9v-3h.8v-.1Zm6.7 0 1 3.6.8-3.6h.8l1 3.6.8-3.6h.8l-1.3 4.5h-.8l-1-3.4-.8 3.4h-.8l-1.3-4.5h.8Zm6.5 3.3c0 .3 0 .4.2.6l.6.2.8-.2c.4-.2.6-.6.6-1v-.6l-.3.1a3 3 0 0 1-.5 0l-.4.1-.6.2c-.3.1-.4.4-.4.6Zm1.8-1.5c.2 0 .3 0 .4-.2v-.3c0-.3 0-.4-.2-.6l-.8-.1c-.4 0-.7 0-.9.3l-.2.5h-.7c0-.5.2-1 .6-1.1.3-.3.7-.4 1.2-.4s1 .1 1.3.3c.3.2.5.5.5 1v2.8h.5v.6a2 2 0 0 1-.3 0h-.2c-.3 0-.5 0-.6-.2l-.1-.4a2 2 0 0 1-1.6.8c-.5-.1-.8-.2-1-.5-.4-.2-.5-.6-.5-1s.1-.7.4-1c.3-.1.6-.3 1-.3l1.2-.2Zm2.4-1.8h.7v.7l.7-.6.8-.2c.7 0 1 .3 1.3.7l.2 1v3h-.8v-2.9l-.1-.7a.8.8 0 0 0-.7-.4h-.5l-.5.4-.3.5v3h-.8v-4.5Zm5-1.2h.7v1.2h.8v.7h-.8v2.9c0 .2 0 .3.2.3h.6v.6l-.6.1c-.4 0-.6 0-.7-.3-.2-.1-.2-.4-.2-.7v-3h-.6v-.6h.6v-1.2Zm4.7 0h.8v1.2h.7v.7h-.7v2.9c0 .2 0 .3.2.3h.5v.6l-.5.1c-.4 0-.6 0-.8-.3l-.1-.7v-3h-.7v-.6h.7v-1.2h-.1Zm4 5.3c.6 0 1-.2 1.1-.6.2-.4.3-.8.3-1.3 0-.4 0-.7-.2-1-.2-.4-.6-.6-1.1-.6-.5 0-.8.1-1 .5-.2.4-.3.8-.3 1.3s0 .9.3 1.2c.2.3.5.5 1 .5h-.1Zm.1-4.2a2 2 0 0 1 1.5.6c.4.4.6 1 .6 1.7a3 3 0 0 1-.5 1.8c-.4.5-1 .7-1.7.7-.6 0-1-.2-1.5-.6-.3-.4-.5-1-.5-1.7 0-.8.2-1.4.6-1.8a2 2 0 0 1 1.5-.7Zm7.1 0c.5 0 1 .1 1.3.4.3.2.5.6.6 1.3h-.8c0-.3-.1-.6-.3-.7-.2-.2-.4-.3-.8-.3a1 1 0 0 0-1 .7l-.2 1.1c0 .5 0 .9.3 1.2.2.3.5.4.9.4.3 0 .5 0 .7-.3l.4-.7h.8c0 .5-.3 1-.7 1.3a2 2 0 0 1-1.3.4c-.6 0-1-.2-1.4-.7-.3-.4-.5-1-.5-1.6 0-.8.2-1.4.6-1.8.3-.5.8-.7 1.4-.7Zm2.6-1.6h.8v2.3l.5-.4c.2-.2.5-.3.9-.3.6 0 1 .3 1.3.7l.2 1v3h-.8v-2.9l-.1-.7c-.2-.3-.4-.4-.8-.4l-.9.3c-.2.2-.3.7-.3 1.3v2.3h-.8v-6.2Zm5.4 5c0 .3 0 .4.2.6l.6.2.8-.2c.4-.2.6-.6.6-1v-.6l-.4.1a3 3 0 0 1-.4 0l-.4.1-.7.2c-.2.1-.3.4-.3.6Zm1.8-1.5c.2 0 .3 0 .4-.2v-.3c0-.3 0-.4-.3-.6l-.7-.1c-.4 0-.7 0-.9.3l-.2.5h-.7c0-.5.2-1 .6-1.1.3-.3.7-.4 1.2-.4s1 .1 1.3.3c.3.2.5.5.5 1v2.8h.5v.6a2 2 0 0 1-.3 0h-.3c-.2 0-.4 0-.5-.2a1 1 0 0 1-.2-.4 2 2 0 0 1-1.6.8 2 2 0 0 1-1-.5c-.3-.2-.4-.6-.4-1s.1-.7.4-1c.2-.1.6-.3 1-.3l1.2-.2Zm2.4-1.8h.7v.7l.7-.6.8-.2c.6 0 1 .3 1.3.7l.2 1v3h-.8v-2.9l-.1-.7a.8.8 0 0 0-.7-.4h-.5l-.5.4-.3.5v3h-.8v-4.5Zm6.4 0c.3 0 .7 0 1 .2l.4.4v-.5h.7v4c0 .7-.1 1.1-.3 1.4-.3.7-.9 1-1.8 1-.5 0-.9-.2-1.2-.4-.3-.2-.5-.5-.6-1h.8l.2.5.8.2c.6 0 1-.2 1.2-.6l.1-1.3c-.1.3-.3.4-.5.5l-.9.2c-.5 0-.9-.2-1.3-.5-.3-.4-.5-1-.5-1.7 0-.8.2-1.4.6-1.8.3-.4.8-.6 1.3-.6Zm1.4 2.3c0-.6-.2-1-.4-1.3-.2-.2-.5-.4-.9-.4a1 1 0 0 0-1 .8 3 3 0 0 0-.2 1c0 .5 0 1 .3 1.2.2.3.5.4.8.4.6 0 1-.3 1.2-.8l.2-1v.1Zm3.7-2.4a2 2 0 0 1 1.6.8l.3.8v1h-3.2c0 .5 0 .9.3 1.1.2.3.5.5 1 .5.6 0 1.1-.4 1.2-1h.7c0 .2 0 .4-.2.6a2 2 0 0 1-.4.5c-.2.2-.5.4-.8.4l-.6.1c-.6 0-1-.2-1.5-.6-.4-.4-.6-1-.6-1.7s.2-1.3.6-1.8a2 2 0 0 1 1.6-.7Zm1.2 2c0-.3 0-.6-.2-.8-.2-.3-.6-.5-1-.5s-.7.1-1 .4c-.2.2-.3.5-.3 1h2.5v-.1Zm3.2 1.8h.9v.8h-.9v-.8ZM517 63c0-.6.2-1.1.5-1.5.4-.3.8-.5 1.4-.5.6 0 1 .1 1.4.5.3.3.4.7.4 1.2l-.1.7-.8.8-.5.7-.1.8h-.8c0-.4 0-.8.2-1 0-.2.3-.5.6-.8l.3-.4.3-.3.2-.5c0-.3-.1-.6-.3-.8-.2-.2-.4-.3-.8-.3-.5 0-.8.2-1 .6a2 2 0 0 0-.2.8h-.7Z"/><path fill="#D13B40" d="M383.6 77.8h5V20.3h-5z"/></g></svg>